<svg xmlns="http://www.w3.org/2000/svg"><rect width="30" height="30" x="15" y="15" fill="#000"/><rect width="30" height="30" x="75" y="15" fill="#000"/><rect width="10" height="10" x="5" y="65" fill="#000"/><rect width="10" height="10" x="25" y="65" fill="#000"/><rect width="10" height="10" x="45" y="65" fill="#000"/><rect width="10" height="10" x="65" y="65" fill="#000"/><rect width="10" height="10" x="85" y="65" fill="#000"/><rect width="10" height="10" x="105" y="65" fill="#000"/><rect width="10" height="10" x="5" y="85" fill="#000"/><rect width="10" height="10" x="25" y="85" fill="#000"/><rect width="10" height="10" x="45" y="85" fill="#000"/><rect width="10" height="10" x="65" y="85" fill="#000"/><rect width="10" height="10" x="85" y="85" fill="#000"/><rect width="10" height="10" x="105" y="85" fill="#000"/><rect width="10" height="10" x="5" y="105" fill="#000"/><rect width="10" height="10" x="25" y="105" fill="#000"/><rect width="10" height="10" x="45" y="105" fill="#000"/><rect width="10" height="10" x="65" y="105" fill="#000"/><rect width="10" height="10" x="85" y="105" fill="#000"/><rect width="10" height="10" x="105" y="105" fill="#000"/></svg>