<svg xmlns="http://www.w3.org/2000/svg" version="1.1"><defs><clipPath id="outer"><rect width="240" height="240" x="16" y="16"/></clipPath><clipPath id="inner"><path d="M 248 16 H 24 C 19.58468 16 16 19.58468 16 24 V 248 C 16 252.41532 19.58468 256 24 256 H 248 C 252.41532 256 256 252.41532 256 248 V 24 C 256 19.58468 252.41532 16 248 16 Z M 48 56 H 272 V 296 H 48 Z" clip-rule="evenodd"/></clipPath></defs><g clip-path="url(#outer)"><path fill="gray" fill-rule="evenodd" d="M 16 16 H 256 V 256 H 16 Z M 280 48 H 56 C 51.58468 48 48 51.58468 48 56 V 280 C 48 284.41532 51.58468 288 56 288 H 280 C 284.41532 288 288 284.41532 288 280 V 56 C 288 51.58468 284.41532 48 280 48 Z" clip-path="url(#inner)"/></g></svg>