<svg xmlns="http://www.w3.org/2000/svg" xmlns:xlink="http://www.w3.org/1999/xlink" viewBox="0 0 200 600"><defs><pattern id="patternUnits" width="80" height="80" patternUnits="userSpaceOnUse"><rect width="50" height="50" fill="#00f"/><rect width="50" height="50" x="50" fill="red"/><rect width="50" height="50" y="50" fill="red"/><rect width="50" height="50" x="50" y="50" fill="#00f"/></pattern></defs><rect width="100" height="100" fill="url(#patternUnits)" stroke="#000"/><g transform="translate(100)"><rect width="100" height="100" fill="url(#patternUnits)" stroke="#000"/></g><defs><pattern id="patternContentUnits" width="1" height="1" patternContentUnits="objectBoundingBox"><rect width=".5" height=".5" fill="#00f"/><rect width=".5" height=".5" x=".5" fill="red"/><rect width=".5" height=".5" y=".5" fill="red"/><rect width=".5" height=".5" x=".5" y=".5" fill="#00f"/></pattern></defs><g transform="translate(0 100)"><rect width="100" height="100" fill="url(#patternContentUnits)" stroke="#000"/><g transform="translate(100)"><rect width="100" height="100" fill="url(#patternContentUnits)" stroke="#000"/></g></g><defs><pattern id="patternTransform" width="1" height="1" patternTransform="rotate(45 50 50)"><rect width="50" height="50" fill="#00f"/><rect width="50" height="50" x="50" fill="red"/><rect width="50" height="50" y="50" fill="red"/><rect width="50" height="50" x="50" y="50" fill="#00f"/></pattern></defs><g transform="translate(0 200)"><rect width="100" height="100" fill="url(#patternTransform)" stroke="#000"/><g transform="translate(100)"><rect width="100" height="100" fill="url(#patternTransform)" stroke="#000"/></g></g><defs><pattern id="par" width="1" height="1" preserveAspectRatio="none" viewBox="0.1 0.1 0.6 0.85"><rect width="50" height="50" fill="#00f"/><rect width="50" height="50" x="50" fill="red"/><rect width="50" height="50" y="50" fill="red"/><rect width="50" height="50" x="50" y="50" fill="#00f"/></pattern></defs><g transform="translate(0 300)"><rect width="100" height="100" fill="url(#par)" stroke="#000"/><g transform="translate(100)"><rect width="100" height="100" fill="url(#par)" stroke="#000"/></g></g><defs><pattern id="viewBox" width="1" height="1" preserveAspectRatio="none" viewBox="0.1 0.1 0.6 0.85"><rect width="50" height="50" fill="#00f"/><rect width="50" height="50" x="50" fill="red"/><rect width="50" height="50" y="50" fill="red"/><rect width="50" height="50" x="50" y="50" fill="#00f"/></pattern></defs><g transform="translate(0 400)"><rect width="100" height="100" fill="url(#viewBox)" stroke="#000"/><g transform="translate(100)"><rect width="100" height="100" fill="url(#viewBox)" stroke="#000"/></g></g><defs><pattern id="xlink" xlink:href="#xlinkRef"/><pattern id="xlinkRef" width="1" height="1"><rect width="50" height="50" fill="#00f"/><rect width="50" height="50" x="50" fill="red"/><rect width="50" height="50" y="50" fill="red"/><rect width="50" height="50" x="50" y="50" fill="#00f"/></pattern></defs><g transform="translate(0 500)"><rect width="100" height="100" fill="url(#xlink)" stroke="#000"/><g transform="translate(100)"><rect width="100" height="100" fill="url(#xlink)" stroke="#000"/></g></g></svg>