<svg xmlns="http://www.w3.org/2000/svg" shape-rendering="crispEdges"><g fill="#00f" stroke="red" stroke-width="10" transform="translate(10 10)"><rect width="40" height="40" x="0"/><rect width="40" height="40" x="60"/><rect width="40" height="40" x="120"/><rect width="40" height="40" x="180"/><rect width="40" height="40" x="0" y="60" rx="0" ry="20"/><rect width="40" height="40" x="60" y="60" rx="0" ry="20"/><rect width="40" height="40" x="120" y="60" rx="0" ry="20"/><rect width="40" height="40" x="180" y="60" rx="0" ry="20"/><rect width="40" height="40" x="240" y="60" rx="0" ry="20"/><rect width="40" height="40" x="0" y="120" rx="20"/><rect width="40" height="40" x="60" y="120" rx="20"/><rect width="40" height="40" x="120" y="120" rx="20"/><rect width="40" height="40" x="180" y="120" rx="20"/><rect width="40" height="40" x="240" y="120" rx="20"/><rect width="40" height="40" x="300" y="120" rx="20"/></g></svg>