<svg xmlns="http://www.w3.org/2000/svg" xmlns:xlink="http://www.w3.org/1999/xlink" class="reftest-wait" shape-rendering="crispEdges"><g fill="#00f" stroke="red" stroke-width="10" transform="translate(10 10)"><rect width="40" height="40" x="0"/><rect width="40" height="40" x="60"><set attributeName="rx" to="0"/></rect><rect width="40" height="40" x="120" rx="20"><set attributeName="rx" to="0"/></rect><rect width="40" height="40" x="180" rx="20" ry="20"><set attributeName="rx" to="0"/><set attributeName="ry" to="0"/></rect><rect width="40" height="40" x="0" y="60" rx="0" ry="20"/><rect width="40" height="40" x="60" y="60" ry="20"><set attributeName="rx" to="0"/></rect><rect width="40" height="40" x="120" y="60" rx="20" ry="20"><set attributeName="rx" to="0"/></rect><rect width="40" height="40" x="180" y="60"><set attributeName="rx" to="0"/><set attributeName="ry" to="20"/></rect><rect id="a" width="40" height="40" x="240" y="60"><set attributeName="ry" to="20"/></rect><rect width="40" height="40" x="0" y="120" rx="20"/><rect width="40" height="40" x="60" y="120"><set attributeName="rx" to="20"/></rect><rect width="40" height="40" x="120" y="120" rx="0"><set attributeName="rx" to="20"/></rect><rect width="40" height="40" x="180" y="120" rx="10"><set attributeName="rx" to="20"/></rect><rect id="b" width="40" height="40" x="240" y="120" ry="0"><set attributeName="rx" to="20"/></rect><rect id="c" width="40" height="40" x="300" y="120"/></g><script type="text/javascript" xlink:href="smil-util.js"/><script type="text/javascript">document.getElementById(&apos;a&apos;).rx.baseVal.value = 0; document.getElementById(&apos;b&apos;).removeAttribute(&apos;ry&apos;); document.getElementById(&apos;c&apos;).rx.baseVal.value = 20; // We can get very minor rendering differences on Windows due to the // presence of animation in the document, even on un-animated content. // This is most likely due to interaction with layers so we forcibly seek // the animation timeline to try to produce a steady state for snapshot. setTimeAndSnapshot(0.0, true);</script></svg>