<svg xmlns="http://www.w3.org/2000/svg"><filter id="filter_1" width="100%" height="100%" x="0%" y="0%"><feTurbulence baseFrequency=".01" numOctaves="1" type="turbulence"/></filter><filter id="filter_2" width="100%" height="100%" x="0%" y="0%"><feTurbulence baseFrequency=".01" numOctaves="2" type="turbulence"/></filter><filter id="filter_3" width="100%" height="100%" x="0%" y="0%"><feTurbulence baseFrequency=".01" numOctaves="3" type="turbulence"/></filter><filter id="filter_4" width="100%" height="100%" x="0%" y="0%"><feTurbulence baseFrequency=".01" numOctaves="4" type="turbulence"/></filter><rect width="20" height="20" x="0" y="0" filter="url(#filter_3)"/><rect width="20" height="20" x="20" y="0" filter="url(#filter_4)"/><rect width="20" height="20" x="0" y="20" filter="url(#filter_2)"/><rect width="20" height="20" x="20" y="20" filter="url(#filter_1)"/><rect width="20" height="20" x="0" y="40" filter="url(#filter_3)"/><rect width="20" height="20" x="20" y="40" filter="url(#filter_4)"/><rect width="20" height="20" x="0" y="60" filter="url(#filter_2)"/><rect width="20" height="20" x="20" y="60" filter="url(#filter_1)"/><rect width="20" height="20" x="0" y="80" filter="url(#filter_1)"/><rect width="20" height="20" x="20" y="80" filter="url(#filter_4)"/><rect width="20" height="20" x="0" y="100" filter="url(#filter_4)"/><rect width="20" height="20" x="20" y="100" filter="url(#filter_1)"/></svg>