<svg xmlns="http://www.w3.org/2000/svg" width="178" height="178"><clipPath id="topside"><path d="M175,0 L35,70 L0,0 z"/></clipPath><clipPath id="leftside"><path d="M0,0 L35,70 L25,75 L0,175 z"/></clipPath><clipPath id="bottomside"><path d="M0,175 L25,75 L75,75 L175,175 z"/></clipPath><clipPath id="rightside"><path d="M75,75 L75,50 L175,0 L175,175 z"/></clipPath><rect width="175" height="175" x="0" y="0" fill="red" clip-path="url(#topside)" rx="75" ry="75"/><rect width="175" height="175" x="0" y="0" fill="green" clip-path="url(#leftside)" rx="75" ry="75"/><rect width="175" height="175" x="0" y="0" fill="#00f" clip-path="url(#bottomside)" rx="75" ry="75"/><rect width="175" height="175" x="0" y="0" fill="#000" clip-path="url(#rightside)" rx="75" ry="75"/><path fill="#fff" d="M75,50 L75,75 L25,75 A50,25 0 0,1 75,50"/><rect width="175" height="175" x="0" y="0" fill="none" stroke="orange" stroke-width="3" rx="75" ry="75"/><line x1="145" x2="75" y1="15" y2="50" stroke="orange" stroke-width="3"/><line x1="153.033" x2="75" y1="153.033" y2="75" stroke="orange" stroke-width="3"/><line x1="9.58" x2="25" y1="136.678" y2="75" stroke="orange" stroke-width="3"/><line x1="15" x2="31.387" y1="30" y2="62.774" stroke="orange" stroke-width="3"/><path fill="none" stroke="orange" stroke-width="3" d="M75,50 L75,75 L25,75 A50,25 0 0,1 75,50"/></svg>