<svg xmlns="http://www.w3.org/2000/svg"><line x1="5" x2="5" y1="0" y2="330" stroke="gray" stroke-dasharray="5 5" stroke-width="2"/><line x1="105" x2="105" y1="0" y2="330" stroke="gray" stroke-dasharray="5 5" stroke-width="2"/><line x1="205" x2="205" y1="0" y2="330" stroke="gray" stroke-dasharray="5 5" stroke-width="2"/><g transform="translate(5, 5)"><rect style="stroke:#000;fill:#87cefa" width="30" height="30" x="100" y="0"/></g><g transform="translate(5, 45)"><rect style="stroke:#000;fill:#87cefa" width="30" height="30" x="200" y="0"/></g><g transform="translate(5, 85)"><rect style="stroke:#000;fill:#87cefa" width="30" height="30" x="100" y="0"/></g><g transform="translate(5, 125)"><rect style="stroke:#000;fill:#87cefa" width="30" height="30" x="200" y="0"/></g><g transform="translate(5, 165)"><rect style="stroke:#000;fill:#87cefa" width="30" height="30" x="100" y="0"/></g><g transform="translate(5, 205)"><rect style="stroke:#000;fill:#87cefa" width="30" height="30" x="200" y="0"/></g><g transform="translate(5, 245)"><rect style="stroke:#000;fill:#87cefa" width="30" height="30" x="100" y="0"/></g><g transform="translate(5, 285)"><rect style="stroke:#000;fill:#87cefa" width="30" height="30" x="200" y="0"/></g></svg>