<svg xmlns="http://www.w3.org/2000/svg" xmlns:xlink="http://www.w3.org/1999/xlink" class="reftest-wait" onload="setTimeAndSnapshot(1.5, true)"><script type="text/javascript" xlink:href="../smil-util.js"/><g><path fill="#00f" d="M-2 50h4v -90h4l -6 -10 -6 10h4z" transform="translate(50 50) rotate(-90)"><animateTransform fill="freeze" attributeName="transform" dur="1s" from="0" to="90" type="rotate"/></path></g><g><path fill="#00f" d="M-2 50h4v -90h4l -6 -10 -6 10h4z" transform="translate(150 50) rotate(-90)"><animateTransform fill="freeze" attributeName="transform" dur="1s" to="90" type="rotate"/></path></g><g><path fill="#00f" d="M-2 50h4v -90h4l -6 -10 -6 10h4z" transform="translate(250 50) rotate(-90)"><animateTransform fill="freeze" attributeName="transform" by="180" dur="1s" type="rotate"/></path></g><g><path fill="#00f" d="M-2 50h4v -90h4l -6 -10 -6 10h4z" transform="translate(50 150) rotate(45)"><animateTransform fill="freeze" additive="sum" attributeName="transform" dur="1s" from="0" to="45" type="rotate"/></path></g><g><path fill="#00f" d="M-2 50h4v -90h4l -6 -10 -6 10h4z" transform="translate(100 150) translate(50)"><animateTransform fill="freeze" additive="sum" attributeName="transform" dur="1s" from="0" to="90" type="rotate"/></path></g><g><path fill="#00f" d="M-2 50h4v -90h4l -6 -10 -6 10h4z" transform="translate(250 150) rotate(-90)"><animateTransform fill="freeze" additive="sum" attributeName="transform" dur="1s" from="0" to="90" type="rotate"/><animateTransform fill="freeze" additive="sum" attributeName="transform" dur="1s" from="0" to="90" type="rotate"/></path></g><g><path fill="#00f" d="M-2 50h4v -90h4l -6 -10 -6 10h4z" transform="translate(0 250) translate(50)"><animateTransform fill="freeze" additive="sum" attributeName="transform" dur="1s" from="0" to="45" type="rotate"/><animateTransform fill="freeze" additive="sum" attributeName="transform" dur="1s" from="0" to="45" type="rotate"/></path></g><g><path fill="#00f" d="M-2 50h4v -90h4l -6 -10 -6 10h4z" transform="translate(100 250) skewX(-20) skewX(20) translate(50)"><animateTransform fill="freeze" additive="sum" attributeName="transform" dur="1s" from="0" to="45" type="rotate"/><animateTransform fill="freeze" additive="sum" attributeName="transform" dur="1s" from="0" to="45" type="rotate"/></path></g><g><path fill="#00f" d="M-2 50h4v -90h4l -6 -10 -6 10h4z" transform="translate(200 250) skewX(-20) skewX(20) translate(50)"><animateTransform fill="freeze" additive="sum" attributeName="transform" dur="1s" from="0" to="45" type="rotate"/><animateTransform fill="freeze" additive="sum" attributeName="transform" dur="1s" from="0" to="30" type="translate"/><animateTransform fill="freeze" additive="sum" attributeName="transform" dur="1s" from="0" to="-30" type="translate"/><animateTransform fill="freeze" additive="sum" attributeName="transform" dur="1s" from="0" to="45" type="rotate"/></path></g><g><path fill="#00f" d="M48 100h4v -90h4l -6 -10 -6 10h4z" transform="translate(-50 300) rotate(90 50 50)"><animateTransform fill="freeze" additive="sum" attributeName="transform" dur="1s" from="0 0" to="0 -50" type="translate"/></path></g></svg>