<svg xmlns="http://www.w3.org/2000/svg"><g><path fill="#00f" d="M-2 50h4v -90h4l -6 -10 -6 10h4z" transform="translate(50 50) rotate(90)"/></g><g><path fill="#00f" d="M-2 50h4v -90h4l -6 -10 -6 10h4z" transform="translate(150 50) rotate(90)"/></g><g><path fill="#00f" d="M-2 50h4v -90h4l -6 -10 -6 10h4z" transform="translate(250 50) rotate(90)"/></g><g><path fill="#00f" d="M-2 50h4v -90h4l -6 -10 -6 10h4z" transform="translate(50 150) rotate(90)"/></g><g><path fill="#00f" d="M-2 50h4v -90h4l -6 -10 -6 10h4z" transform="translate(150 150) rotate(90)"/></g><g><path fill="#00f" d="M-2 50h4v -90h4l -6 -10 -6 10h4z" transform="translate(250 150) rotate(90)"/></g><g><path fill="#00f" d="M-2 50h4v -90h4l -6 -10 -6 10h4z" transform="translate(50 250) rotate(90)"/></g><g><path fill="#00f" d="M-2 50h4v -90h4l -6 -10 -6 10h4z" transform="translate(150 250) rotate(90)"/></g><g><path fill="#00f" d="M-2 50h4v -90h4l -6 -10 -6 10h4z" transform="translate(250 250) rotate(90)"/></g><g><path fill="#00f" d="M-2 50h4v -90h4l -6 -10 -6 10h4z" transform="translate(50 350) rotate(90)"/></g></svg>