<svg xmlns="http://www.w3.org/2000/svg" xmlns:xlink="http://www.w3.org/1999/xlink" class="reftest-wait" onload="setTimeAndSnapshot(101, true)"><script type="text/javascript" xlink:href="../smil-util.js"/><g><path fill="#00f" d="M48 100h4v -90h4l -6 -10 -6 10h4z" transform="translate(0 0) rotate(90 50 50)"><animateTransform fill="freeze" attributeName="transform" begin="100s" dur="4s" from="0 0 50" to="0 200 50" type="rotate"/></path></g><g><path fill="#00f" d="M48 100h4v -90h4l -6 -10 -6 10h4z" transform="translate(100 0)"><animateTransform fill="freeze" attributeName="transform" begin="100s" dur="1s" from="0 0 50" to="90 50 50" type="rotate"/></path></g><g><path fill="#00f" d="M48 100h4v -90h4l -6 -10 -6 10h4z" transform="translate(200 0)"><animateTransform fill="freeze" attributeName="transform" begin="100s" dur="2s" from="0 0 50" to="180 100 50" type="rotate"/></path></g><g><path fill="#00f" d="M48 100h4v -90h4l -6 -10 -6 10h4z" transform="translate(0 100)"><animateTransform fill="freeze" attributeName="transform" begin="100s" dur="3s" from="0 0 50" to="270 150 50" type="rotate"/></path></g><g><path fill="#00f" d="M48 100h4v -90h4l -6 -10 -6 10h4z" transform="translate(100 100)"><animateTransform fill="freeze" attributeName="transform" begin="100s" dur="4s" from="0 0 50" to="360 200 50" type="rotate"/></path></g><g><path fill="#00f" d="M48 100h4v -90h4l -6 -10 -6 10h4z" transform="translate(200 100)"><animateTransform fill="freeze" attributeName="transform" begin="100s" dur="6s" from="0 0 50" to="540 300 50" type="rotate"/></path></g><g><path fill="#00f" d="M48 100h4v -90h4l -6 -10 -6 10h4z" transform="translate(0 200)"><animateTransform fill="freeze" attributeName="transform" begin="100s" dur="40s" from="0 0 50" to="3600 2000 50" type="rotate"/></path></g><g><path fill="#00f" d="M48 100h4v -90h4l -6 -10 -6 10h4z" transform="translate(100 200)"><animateTransform fill="freeze" attributeName="transform" begin="100s" dur="1s" from="0 0 50" to="-270 50 50" type="rotate"/></path></g><g><path fill="#00f" d="M48 100h4v -90h4l -6 -10 -6 10h4z" transform="translate(200 200)"><animateTransform fill="freeze" attributeName="transform" begin="100s" dur="2s" from="0 0 50" to="-540 100 50" type="rotate"/></path></g></svg>