<svg xmlns="http://www.w3.org/2000/svg" xmlns:xlink="http://www.w3.org/1999/xlink" class="reftest-wait" onload="setTimeAndSnapshot(101, true)"><script type="text/javascript" xlink:href="../smil-util.js"/><g><path fill="#00f" d="M4 100h4v -90h4l -6 -10 -6 10h4z" transform="translate(44 0) rotate(90 6 50)"><animateTransform fill="freeze" attributeName="transform" begin="100s" dur="4s" from="0 6 50" to="0 6 50" type="rotate"/></path></g><g><path fill="#00f" d="M4 100h4v -90h4l -6 -10 -6 10h4z" transform="translate(144 0)"><animateTransform fill="freeze" attributeName="transform" begin="100s" dur="1s" from="0,6,50" to="90 6 50" type="rotate"/></path></g><g><path fill="#00f" d="M4 100h4v -90h4l -6 -10 -6 10h4z" transform="translate(244,0)"><animateTransform fill="freeze" attributeName="transform" begin="100s" dur="2s" from="0 6 50" to="180,6,50" type="rotate"/></path></g><g><path fill="#00f" d="M4 100h4v -90h4l -6 -10 -6 10h4z" transform="translate(44,100)"><animateTransform fill="freeze" attributeName="transform" begin="100s" dur="3s" from="0,6,50" to="270,6,50" type="rotate"/></path></g><g><path fill="#00f" d="M4 100h4v -90h4l -6 -10 -6 10h4z" transform="translate(144,100)"><animateTransform fill="freeze" attributeName="transform" begin="100s" dur="4s" from="0 6 50" to="360 6 50" type="rotate"/></path></g><g><path fill="#00f" d="M4 100h4v -90h4l -6 -10 -6 10h4z" transform="translate(244,100)"><animateTransform fill="freeze" attributeName="transform" begin="100s" dur="6s" from="0 6 50" to="540 6 50" type="rotate"/></path></g><g><path fill="#00f" d="M4 100h4v -90h4l -6 -10 -6 10h4z" transform="translate(44,200)"><animateTransform fill="freeze" attributeName="transform" begin="100s" dur="40s" from="0 6 50" to="3600 6 50" type="rotate"/></path></g><g><path fill="#00f" d="M4 100h4v -90h4l -6 -10 -6 10h4z" transform="translate(144,200)"><animateTransform fill="freeze" attributeName="transform" begin="100s" dur="1s" from="0 6 50" to="-270 6 50" type="rotate"/></path></g><g><path fill="#00f" d="M4 100h4v -90h4l -6 -10 -6 10h4z" transform="translate(244,200)"><animateTransform fill="freeze" attributeName="transform" begin="100s" dur="2s" from="0 6 50" to="-540 6 50" type="rotate"/></path></g></svg>