<svg xmlns="http://www.w3.org/2000/svg" xmlns:xlink="http://www.w3.org/1999/xlink" class="reftest-wait" onload="setTimeAndSnapshot(101, true)"><script type="text/javascript" xlink:href="../smil-util.js"/><g><path fill="#00f" d="M-2 50h4v -90h4l -6 -10 -6 10h4z" transform="translate(50 50) rotate(90)"/></g><g><path fill="#00f" d="M-2 50h4v -90h4l -6 -10 -6 10h4z" transform="translate(150 50)"><animateTransform fill="freeze" accumulate="sum" attributeName="transform" begin="100s" dur="0.5s" from="0" repeatCount="4" to="45" type="rotate"/></path></g><g><path fill="#00f" d="M-2 50h4v -90h4l -6 -10 -6 10h4z" transform="translate(250 50)"><animateTransform fill="freeze" attributeName="transform" begin="100s" dur="0.75s" from="0" repeatCount="2" to="270" type="rotate"/></path></g><g><path fill="#00f" d="M-2 50h4v -90h4l -6 -10 -6 10h4z" transform="translate(50 150) rotate(-90)"><animateTransform fill="freeze" attributeName="transform" begin="100s" dur="2s" from="0" to="180" type="rotate"/></path></g><g><path fill="#00f" d="M-2 50h4v -90h4l -6 -10 -6 10h4z" transform="translate(150 150) rotate(-90)"><animateTransform fill="freeze" additive="sum" attributeName="transform" begin="100s" dur="1.5s" from="0" to="270" type="rotate"/></path></g><g><path fill="#00f" d="M-2 50h4v -90h4l -6 -10 -6 10h4z" transform="translate(250 150)"><animateTransform fill="freeze" attributeName="transform" begin="100s" dur="2s" from="0" to="60" type="rotate"/><animateTransform fill="freeze" additive="sum" attributeName="transform" begin="100s" dur="2s" from="0" to="60" type="rotate"/><animateTransform fill="freeze" additive="sum" attributeName="transform" begin="100s" dur="2s" from="0" to="60" type="rotate"/></path></g><g><path fill="#00f" d="M-2 50h4v -90h4l -6 -10 -6 10h4z" transform="translate(50 250) rotate(45)"><animateTransform fill="freeze" attributeName="transform" begin="100s" dur="2s" to="135" type="rotate"/></path></g><g><path fill="#00f" d="M-2 50h4v -90h4l -6 -10 -6 10h4z" transform="translate(150 250) rotate(45)"><animateTransform fill="freeze" attributeName="transform" begin="100s" by="90" dur="2s" type="rotate"/></path></g><g><path fill="#00f" d="M-2 50h4v -90h4l -6 -10 -6 10h4z" transform="translate(250 250)"><animateTransform fill="freeze" attributeName="transform" begin="100s" dur="1.5s" type="rotate" values="0; 135; 0"/></path></g></svg>