<svg xmlns="http://www.w3.org/2000/svg" xmlns:xlink="http://www.w3.org/1999/xlink" class="reftest-wait" onload="setTimeAndSnapshot(101, true)"><script type="text/javascript" xlink:href="../smil-util.js"/><g><path fill="#00f" d="M-2 50h4v -90h4l -6 -10 -6 10h4z" transform="translate(50 50) rotate(-90)"><animateTransform fill="freeze" attributeName="transform" begin="100s" dur="1.5s" to="180" type="rotate"/></path></g><g><path fill="#00f" d="M-2 50h4v -90h4l -6 -10 -6 10h4z" transform="translate(150 50) rotate(-810)"><animateTransform fill="freeze" attributeName="transform" begin="100s" dur="2s" to="990" type="rotate"/></path></g><g><path fill="#00f" d="M-2 50h4v -90h4l -6 -10 -6 10h4z" transform="translate(250 50) rotate(-90) translate(0 50) scale(2)"><animateTransform fill="freeze" additive="sum" attributeName="transform" begin="100s" dur="2s" to="180" type="rotate"/></path></g><g><path fill="#00f" d="M-2 50h4v -90h4l -6 -10 -6 10h4z" transform="translate(50 150) rotate(90) scale(2)"><animateTransform fill="freeze" additive="sum" attributeName="transform" begin="100s" dur="1s" to="180" type="rotate"/><animateTransform fill="freeze" additive="sum" attributeName="transform" begin="100s" dur="2s" to="2" type="scale"/></path></g><g><path fill="#00f" d="M-2 50h4v -90h4l -6 -10 -6 10h4z" transform="translate(150 150) rotate(-90) translate(0 50) scale(2)"><animateTransform fill="freeze" additive="sum" attributeName="transform" begin="100s" dur="1s" to="0" type="translate"/><animateTransform fill="freeze" additive="sum" attributeName="transform" begin="100s" dur="2s" to="180" type="rotate"/></path></g><g><path fill="#00f" d="M-2 50h4v -90h4l -6 -10 -6 10h4z" transform="translate(250 150) rotate(90)"/></g><g><path fill="#00f" d="M-2 50h4v -90h4l -6 -10 -6 10h4z" transform="translate(50 250) rotate(90)"/></g><g><path fill="#00f" d="M-2 50h4v -90h4l -6 -10 -6 10h4z" transform="translate(150 250) rotate(90)"/></g><g><path fill="#00f" d="M-2 50h4v -90h4l -6 -10 -6 10h4z" transform="translate(250 250) rotate(90)"/></g></svg>