<svg xmlns="http://www.w3.org/2000/svg"><g><g transform="translate(20,20)"><rect width="15" height="15"/></g><g transform="translate(20,20) translate(50,0)"><rect width="15" height="15" x="0" y="10"/></g><g transform="translate(20,20) translate(100,0)"><rect width="15" height="15" x="12" y="10"/></g></g><g><g transform="translate(20,70)"><rect width="15" height="15" x="30" y="10"/></g><g transform="translate(20,70) translate(50,0)"><rect width="15" height="15" x="35.76" y="17.68"/></g><g transform="translate(20,70) translate(100,0)"><rect width="15" height="15" x="48" y="34"/></g></g><g><g transform="translate(20,120)"><rect width="15" height="15" x="50.4" y="37.2"/></g><g transform="translate(20,120) translate(50,0)"><rect width="15" height="15" x="60" y="50"/></g><g transform="translate(20,120) translate(100,0)"><rect width="15" height="15" x="60" y="50"/></g></g></svg>