<svg xmlns="http://www.w3.org/2000/svg" xmlns:xlink="http://www.w3.org/1999/xlink" width="16" height="16" viewBox="0 0 16 16"><defs><linearGradient id="d"><stop offset="0" stop-color="#141414"/><stop offset="1" stop-color="#3c3c3c"/></linearGradient><linearGradient id="c"><stop offset="0" stop-color="#cdf0ff"/><stop offset="1" stop-color="#f5fcff"/></linearGradient><linearGradient id="b"><stop offset="0" stop-color="#787878"/><stop offset="1" stop-color="#505050"/></linearGradient><linearGradient id="a"><stop offset="0" stop-color="#282828"/><stop offset="1" stop-color="#505050"/></linearGradient><linearGradient id="e" x1="14.078" x2="3.337" y1="8.108" y2="1.576" gradientTransform="matrix(1.04615 0 0 1.06667 -.415 .667)" gradientUnits="userSpaceOnUse" xlink:href="#a"/><linearGradient id="h" x1="13.748" x2="13.239" y1="5.261" y2="4.752" gradientTransform="matrix(2 0 0 2 -13 -4)" gradientUnits="userSpaceOnUse" xlink:href="#b"/><linearGradient id="g" x1="12.299" x2="3.829" y1="8.432" y2="1.854" gradientTransform="translate(0 1)" gradientUnits="userSpaceOnUse" xlink:href="#c"/><linearGradient id="i" x1="5.989" x2=".987" y1="15.102" y2="5.946" gradientTransform="translate(-.5 -.5)" gradientUnits="userSpaceOnUse" xlink:href="#a"/><linearGradient id="k" x1="1.261" x2="4.865" y1="10.774" y2="10.774" gradientTransform="matrix(1.10989 0 0 .79278 -.4 .958)" gradientUnits="userSpaceOnUse" xlink:href="#c"/><linearGradient id="l" x1="13.748" x2="13.239" y1="5.261" y2="4.752" gradientTransform="matrix(1.5 0 0 1.5 -17.25 6)" gradientUnits="userSpaceOnUse" xlink:href="#b"/><linearGradient id="m" x1="3.079" x2="2.826" y1="6.539" y2="5.597" gradientTransform="matrix(.683 0 0 .6166 .985 2.273)" gradientUnits="userSpaceOnUse" xlink:href="#b"/><linearGradient id="f" x1="13.677" x2=".512" y1="12.328" y2="4.058" gradientTransform="matrix(.97143 0 0 .96 .257 .24)" gradientUnits="userSpaceOnUse" xlink:href="#d"/><linearGradient id="j" x1="5.489" x2=".487" y1="14.602" y2="5.446" gradientUnits="userSpaceOnUse" xlink:href="#d"/></defs><rect width="13.6" height="9.6" x="2.2" y="1.2" fill="url(#e)" stroke="url(#f)" stroke-linejoin="round" stroke-width=".4" rx="1" ry="1"/><rect width="9" height="7" x="3.5" y="2.5" fill="url(#g)" rx=".5" ry=".5"/><circle cx="14" cy="6" r="1" fill="url(#h)"/><rect width="6" height="10" y="5" fill="url(#i)" stroke="url(#j)" stroke-linejoin="round" stroke-width=".4" rx="1" ry="1"/><rect width="4" height="5" x="1" y="7" fill="url(#k)" rx=".5" ry=".5"/><circle cx="3" cy="13.5" r=".75" fill="url(#l)"/><rect width="2" height=".5" x="2" y="5.75" fill="url(#m)" rx=".5" ry=".5"/></svg>