<svg xmlns="http://www.w3.org/2000/svg" xmlns:xlink="http://www.w3.org/1999/xlink" width="16" height="16"><defs><linearGradient id="a"><stop offset="0" stop-color="#6f9fdf"/><stop offset="1" stop-color="#b8d0f1"/></linearGradient><linearGradient id="b"><stop offset="0" stop-color="#133cb8"/><stop offset="1" stop-color="#7faae8"/></linearGradient><linearGradient id="d" x1="11.304" x2="7.065" y1="9.268" y2="4.197" gradientUnits="userSpaceOnUse" xlink:href="#a"/><linearGradient id="c" x1="6.587" x2="2.992" y1="7.594" y2=".487" gradientUnits="userSpaceOnUse" xlink:href="#b"/></defs><path fill="#fff" d="M.5.813c-.273.04-.502.354-.5.687v5.625c0 .36.265.688.563.688h4.406v-1h-3.5a.52.52 0 0 1-.5-.5V2.218a.517.517 0 0 1 .437-.5h3.75c.227-.4.634-.711 1.094-.75.415-.031.84.134 1.125.437l.313.313h6.843c.262 0 .5.238.5.5v4.094a.52.52 0 0 1-.5.5h-1.969l.938 1h1.938c.297 0 .562-.328.562-.688V1.5c0-.36-.265-.688-.563-.688H.5z"/><path fill="url(#c)" d="M.5 0C.227.041-.002.355 0 .688v5.625C0 6.673.265 7 .563 7h4.406V6h-3.5a.52.52 0 0 1-.5-.5V1.406a.517.517 0 0 1 .437-.5h13.125c.262 0 .5.238.5.5V5.5a.52.52 0 0 1-.5.5h-2.75l.969 1h2.688c.297 0 .562-.328.562-.688V.688c0-.36-.265-.687-.563-.687H.5z"/><path fill="url(#d)" stroke="#4673ce" stroke-linejoin="round" d="M6.375 2.375v9.906l2.094-.844 1.625 3.844 2.531-1.062-1.594-3.781 2.188-.876L9.813 5.97 6.374 2.375z"/></svg>