<svg xmlns="http://www.w3.org/2000/svg" xmlns:xlink="http://www.w3.org/1999/xlink" width="16" height="16" viewBox="0 0 16 16"><defs><linearGradient id="e"><stop offset="0" stop-color="#434f5d"/><stop offset="1" stop-color="#65788b"/></linearGradient><linearGradient id="d"><stop offset="0" stop-color="#787878"/><stop offset="1" stop-color="#8c8c8c"/></linearGradient><linearGradient id="c"><stop offset="0" stop-color="#8c8c8c"/><stop offset="1" stop-color="#a0a0a0"/></linearGradient><linearGradient id="b"><stop offset="0" stop-color="#b6b38a"/><stop offset="1" stop-color="#d3d2bd"/></linearGradient><linearGradient id="a"><stop offset="0" stop-color="#ecebe0"/><stop offset="1" stop-color="#fbfbf9" stop-opacity="0"/></linearGradient><linearGradient id="f" x1="13.934" x2="4.08" y1="14.382" y2="4.549" gradientTransform="translate(-1.018 -.726)" gradientUnits="userSpaceOnUse" xlink:href="#a"/><linearGradient id="g" x1="13.78" x2="1.893" y1="16.614" y2="4.836" gradientTransform="translate(-1.018 -.726)" gradientUnits="userSpaceOnUse" xlink:href="#b"/><linearGradient id="h" x1="5.458" x2="4.751" y1="4.023" y2="2.41" gradientTransform="translate(-1.018 -1.026)" gradientUnits="userSpaceOnUse" xlink:href="#c"/><linearGradient id="i" x1="5.323" x2="4.252" y1="3.313" y2=".94" gradientTransform="translate(0 -.3)" gradientUnits="userSpaceOnUse" xlink:href="#d"/><linearGradient id="j" x1="4.575" x2="11.377" y1="9.29" y2="9.29" gradientUnits="userSpaceOnUse" xlink:href="#e"/></defs><path style="marker:none" fill="url(#f)" stroke="url(#g)" stroke-linejoin="round" d="M2 2.75h12v12H2z" color="#000" overflow="visible"/><path style="marker:none" id="k" fill="url(#h)" stroke="url(#i)" stroke-linejoin="round" stroke-width=".2" d="M4 .75c-.553 0-1 .672-1 1.5 0 .829.399 1.474 1 1.5.106.006.2-.08.2-.25 0-.168-.11-.25-.2-.25-.277 0-.5-.447-.5-1 0-.552.223-1 .5-1 .275 0 .5.448.5 1H5c0-.828-.448-1.5-1-1.5z" color="#000" overflow="visible"/><path style="marker:none" fill="url(#j)" d="M4 11.45h7v1H4zm1-5.321h5v1H5zm1 2.66h6v1H6z" color="#000" overflow="visible"/><use id="l" width="100%" height="100%" transform="translate(2.667)" xlink:href="#k"/><use id="m" width="100%" height="100%" transform="translate(2.667)" xlink:href="#l"/><use width="100%" height="100%" transform="translate(2.667)" xlink:href="#m"/></svg>