<svg xmlns="http://www.w3.org/2000/svg" xmlns:xlink="http://www.w3.org/1999/xlink" width="16" height="16" viewBox="0 0 16 16"><defs><linearGradient id="d"><stop offset="0" stop-color="#8c8c8c"/><stop offset="1" stop-color="#b4b4b4"/></linearGradient><linearGradient id="a"><stop offset="0" stop-color="#544024"/><stop offset="1" stop-color="#8b6b3d"/></linearGradient><linearGradient id="b"><stop offset="0" stop-color="#a0a0a0"/><stop offset="1" stop-color="#a0a0a0" stop-opacity="0"/></linearGradient><linearGradient id="e"><stop offset="0" stop-color="#a0a0a0"/><stop offset="1" stop-color="#c8c8c8"/></linearGradient><linearGradient id="c"><stop offset="0" stop-color="#382b18"/><stop offset="1" stop-color="#6f5631"/></linearGradient><linearGradient id="f" x1="9.123" x2="6.735" y1="3.859" y2="3.409" gradientUnits="userSpaceOnUse" xlink:href="#a"/><linearGradient id="j" x1="13.352" x2="2.4" y1="9.586" y2="8.347" gradientUnits="userSpaceOnUse" xlink:href="#a"/><linearGradient id="l" x1="7.974" x2="7.974" y1="14.423" y2="11.675" gradientTransform="translate(0 -.2)" gradientUnits="userSpaceOnUse" xlink:href="#b"/><linearGradient id="g" x1="9.32" x2="6.728" y1="7.243" y2="6.716" gradientUnits="userSpaceOnUse" xlink:href="#c"/><linearGradient id="k" x1="12.451" x2="1.56" y1="11.469" y2="10.342" gradientUnits="userSpaceOnUse" xlink:href="#c"/><linearGradient id="i" x1="13.218" x2="2.686" y1="13.627" y2="13.627" gradientUnits="userSpaceOnUse" xlink:href="#d"/><linearGradient id="h" x1="12.607" x2="3.321" y1="12.021" y2="12.021" gradientUnits="userSpaceOnUse" xlink:href="#e"/></defs><path fill="url(#f)" stroke="url(#g)" stroke-linejoin="round" stroke-width=".4" d="M8 1c-.828 0-1.5 1.343-1.5 3v3.5c0 .554.446 1 1 1h1c.554 0 1-.446 1-1V4c0-1.657-.672-3-1.5-3z"/><rect width="11" height="5" x="2.5" y="10" fill="url(#h)" stroke="url(#i)" stroke-linejoin="round" stroke-width=".4" rx=".5" ry=".5"/><rect width="12" height="2" x="2" y="8" fill="url(#j)" stroke="url(#k)" stroke-linejoin="round" stroke-width=".4" rx=".5" ry=".5"/><path fill="url(#l)" d="M11.5 10.8h1v4h-1zm-2 0h1v4h-1zm-2 0h1v4h-1zm-2 0h1v4h-1zm-2 0h1v4h-1z"/></svg>