<svg xmlns="http://www.w3.org/2000/svg" xmlns:xlink="http://www.w3.org/1999/xlink" width="16" height="16" viewBox="0 0 16 16"><defs><linearGradient id="b"><stop offset="0" stop-color="#e2e6ea"/><stop offset="1" stop-color="#f9fafb"/></linearGradient><linearGradient id="a"><stop offset="0" stop-color="#323b46"/><stop offset="1" stop-color="#546374"/></linearGradient><linearGradient id="d" x1="8.663" x2="4.016" y1="13.198" y2=".822" gradientUnits="userSpaceOnUse" xlink:href="#a"/><linearGradient id="c" x1="6.113" x2="2.064" y1="13.044" y2="1.975" gradientUnits="userSpaceOnUse" xlink:href="#b"/><linearGradient id="e" x1="7.795" x2="3.948" y1="13.163" y2="1.511" gradientUnits="userSpaceOnUse" xlink:href="#a"/></defs><path fill="url(#c)" stroke="url(#d)" stroke-linejoin="round" stroke-width=".4" d="M1.7 1.2c-.278 0-.5.222-.5.5v12.6c0 .278.222.5.5.5h3.6c.278 0 .5-.222.5-.5V5.8h8.5c.278 0 .5-.222.5-.5V1.7c0-.278-.222-.5-.5-.5H1.7z"/><path fill="none" stroke="url(#e)" d="M1 4.5h1.5M1 7.5h3m-3 3h1.5m-1.5 3h3M4.5 1v1.5m3-1.5v3m3-3v1.5m3-1.5v3"/></svg>