<svg xmlns="http://www.w3.org/2000/svg" xmlns:xlink="http://www.w3.org/1999/xlink" width="16" height="16" viewBox="0 0 16 16"><defs><linearGradient id="e"><stop offset="0" stop-color="#65808b"/><stop offset="1" stop-color="#7c939c"/></linearGradient><linearGradient id="a"><stop offset="0" stop-color="#43555d"/><stop offset="1" stop-color="#566a72"/></linearGradient><linearGradient id="d"><stop offset="0" stop-color="#54a0ec"/><stop offset="1" stop-color="#99c5f7"/></linearGradient><linearGradient id="c"><stop offset="0" stop-color="#f6fafe"/><stop offset="1" stop-color="#99c5f7"/></linearGradient><linearGradient id="b"><stop offset="0" stop-color="#324046"/><stop offset="1" stop-color="#45555b"/></linearGradient><linearGradient id="h" x1="13.661" x2="2.358" y1="12.474" y2="5.025" gradientTransform="matrix(.97143 0 0 .96 .229 .612)" gradientUnits="userSpaceOnUse" xlink:href="#a"/><linearGradient id="i" x1="16.505" x2="2.974" y1="11.096" y2="2.807" gradientTransform="matrix(.97143 0 0 .96 .229 .612)" gradientUnits="userSpaceOnUse" xlink:href="#b"/><linearGradient id="k" x1="10.3" x2="5.662" y1="11.02" y2="6.382" gradientTransform="translate(0 .236)" gradientUnits="userSpaceOnUse" xlink:href="#b"/><linearGradient id="j" x1="10.582" x2="6.843" y1="9.815" y2="6.172" gradientTransform="translate(0 .236)" gradientUnits="userSpaceOnUse" xlink:href="#a"/><radialGradient id="l" cx="7.075" cy="7.944" r="2.5" fx="7.075" fy="7.944" gradientTransform="rotate(45 9.338 9.078) scale(1.00392 1.2642)" gradientUnits="userSpaceOnUse" xlink:href="#c"/><linearGradient id="m" x1="8.873" x2="5.628" y1="11.096" y2="7.85" gradientTransform="translate(0 .236)" gradientUnits="userSpaceOnUse" xlink:href="#d"/><linearGradient id="g" x1="10.226" x2="6.522" y1="3.728" y2="2.07" gradientTransform="translate(0 .314)" gradientUnits="userSpaceOnUse" xlink:href="#a"/><linearGradient id="f" x1="9.212" x2="6.127" y1="4.437" y2="3.047" gradientTransform="translate(0 .314)" gradientUnits="userSpaceOnUse" xlink:href="#e"/></defs><path fill="url(#f)" stroke="url(#g)" stroke-linejoin="round" stroke-width=".4" d="M6.5 2.225c-.277 0-.641.14-.816.316L4.316 3.908c-.175.175-.093.317.184.317h7c.277 0 .359-.142.184-.317l-1.368-1.367c-.175-.175-.539-.316-.816-.316h-2z"/><rect width="13.6" height="9.6" x="1.2" y="4.2" fill="url(#h)" stroke="url(#i)" stroke-linejoin="round" stroke-width=".4" rx="1" ry="1"/><circle cx="8" cy="9" r="3.5" fill="url(#j)" stroke="url(#k)" stroke-linejoin="round" stroke-width=".4"/><circle cx="8" cy="9" r="2.5" fill="url(#l)" stroke="url(#m)" stroke-linejoin="round" stroke-width=".4"/></svg>