<svg xmlns="http://www.w3.org/2000/svg" xmlns:xlink="http://www.w3.org/1999/xlink" width="16" height="16"><defs><linearGradient id="c"><stop offset="0" stop-color="#dd8506"/><stop offset="1" stop-color="#f4a24b"/></linearGradient><linearGradient id="b"><stop offset="0" stop-color="#e68507"/><stop offset="1" stop-color="#f4b65f"/></linearGradient><linearGradient id="a"><stop offset="0" stop-color="#f3a952"/><stop offset="1" stop-color="#fadbba"/></linearGradient><linearGradient id="d" x1="9.06" x2="9.06" y1="13.305" y2="1.704" gradientTransform="translate(3)" gradientUnits="userSpaceOnUse" xlink:href="#a"/><linearGradient id="f" x1="3.865" x2="3.865" y1="14.919" y2="13.049" gradientTransform="translate(3)" gradientUnits="userSpaceOnUse" xlink:href="#b"/><linearGradient id="e" x1="12.911" x2="2.554" y1="12.657" y2="2.3" gradientUnits="userSpaceOnUse" xlink:href="#c"/></defs><path fill="url(#d)" stroke="url(#e)" stroke-linejoin="round" d="M4.698 2.46h3.7c3.052 0 5.102 1.828 5.102 4.568v3.565h1.962L12.077 13.5l-3.383-2.914h1.9V7.74c0-1.793-.486-2.454-2.047-2.492-.791-.02-1.842 0-2.647 0-1.821 0-2.368.81-2.368 2.488V12.5H.522S.518 9.04.518 7.03c0-2.72 2.209-4.57 4.179-4.57z"/><path fill="url(#f)" d="M5.016 12.987h4.01v1.995h-4.01z"/></svg>