<svg xmlns="http://www.w3.org/2000/svg" xmlns:xlink="http://www.w3.org/1999/xlink" width="12" height="12"><defs><linearGradient id="d"><stop offset="0" stop-color="#787878"/><stop offset="1" stop-color="#b4b4b4"/></linearGradient><linearGradient id="c"><stop offset="0" stop-color="#505050"/><stop offset="1" stop-color="#787878"/></linearGradient><linearGradient id="a"><stop offset="0" stop-color="#c8c8c8"/><stop offset="1" stop-color="#dcdcdc"/></linearGradient><linearGradient id="b"><stop offset="0" stop-color="#a0a0a0"/><stop offset="1" stop-color="#c8c8c8"/></linearGradient><linearGradient id="e" x1="8.637" x2="6.34" y1="4.311" y2=".583" gradientTransform="matrix(.64 0 0 .6988 .88 .987)" gradientUnits="userSpaceOnUse" xlink:href="#a"/><linearGradient id="f" x1="7.188" x2="4.956" y1="5.078" y2="1.392" gradientTransform="matrix(.64 0 0 .6988 .88 .987)" gradientUnits="userSpaceOnUse" xlink:href="#b"/><linearGradient id="g" x1="11.377" x2="4.559" y1="1052.085" y2="1040.666" gradientTransform="matrix(.62152 0 0 .5895 1.028 -609.403)" gradientUnits="userSpaceOnUse" xlink:href="#a"/><linearGradient id="h" x1="8.842" x2="1.917" y1="1053.385" y2="1041.923" gradientTransform="matrix(.62152 0 0 .5895 1.028 -609.403)" gradientUnits="userSpaceOnUse" xlink:href="#b"/><linearGradient id="i" x1="8.54" x2="6.608" y1="12.498" y2="7.825" gradientTransform="matrix(.71429 0 0 .71492 .286 .276)" gradientUnits="userSpaceOnUse" xlink:href="#c"/><linearGradient id="j" x1="9.392" x2="7.402" y1="12.116" y2="7.414" gradientTransform="matrix(.71429 0 0 .71492 .286 .276)" gradientUnits="userSpaceOnUse" xlink:href="#d"/></defs><g stroke-linejoin="round" transform="matrix(1.19102 0 0 1.19106 -1.146 -1.146)"><path fill="url(#e)" stroke="url(#f)" stroke-width=".504" d="M6 1.215a2.982 2.982 0 0 0-2.991 2.904c.114-.019.238-.045.357-.045h.938C4.386 3.194 5.1 2.421 6 2.421c.899 0 1.614.773 1.696 1.653h.938c.119 0 .243.026.357.045A2.982 2.982 0 0 0 6 1.215z"/><rect width="9.571" height="6.72" x="1.214" y="4.065" fill="url(#g)" stroke="url(#h)" stroke-width=".504" rx="1.679" ry="1.679"/><path fill="url(#i)" stroke="url(#j)" stroke-width=".336" d="M6 5.504A1.2 1.2 0 0 0 4.795 6.71c0 .562.375 1.023.893 1.162v1.475h.625V7.872c.517-.139.892-.6.892-1.162A1.2 1.2 0 0 0 6 5.504z"/></g></svg>