<svg xmlns="http://www.w3.org/2000/svg" xmlns:svg="http://www.w3.org/2000/svg" id="svg10302" width="650" height="400" version="1.1" viewBox="0 0 650 400"><defs id="defs10304"><marker id="DotS" orient="auto" refX="0" refY="0" style="overflow:visible"><path id="path3941" d="m -2.5,-1 c 0,2.76 -2.24,5 -5,5 -2.76,0 -5,-2.24 -5,-5 0,-2.76 2.24,-5 5,-5 2.76,0 5,2.24 5,5 z" transform="matrix(0.2,0,0,0.2,1.48,0.2)" style="fill-rule:evenodd;stroke:#000;stroke-width:1pt;marker-start:none;marker-end:none"/></marker><marker id="Arrow1Send" orient="auto" refX="0" refY="0" style="overflow:visible"><path id="path3888" d="M 0,0 5,-5 -12.5,0 5,5 0,0 z" transform="matrix(-0.2,0,0,-0.2,-1.2,0)" style="fill-rule:evenodd;stroke:#000;stroke-width:1pt;marker-start:none"/></marker><marker id="DotS-0" orient="auto" refX="0" refY="0" style="overflow:visible"><path id="path3941-3" d="m -2.5,-1 c 0,2.76 -2.24,5 -5,5 -2.76,0 -5,-2.24 -5,-5 0,-2.76 2.24,-5 5,-5 2.76,0 5,2.24 5,5 z" transform="matrix(0.2,0,0,0.2,1.48,0.2)" style="fill-rule:evenodd;stroke:#000;stroke-width:1pt;marker-start:none;marker-end:none"/></marker><marker id="Arrow1Send-4" orient="auto" refX="0" refY="0" style="overflow:visible"><path id="path3888-2" d="M 0,0 5,-5 -12.5,0 5,5 0,0 z" transform="matrix(-0.2,0,0,-0.2,-1.2,0)" style="fill-rule:evenodd;stroke:#000;stroke-width:1pt;marker-start:none"/></marker><marker id="DotS-6" orient="auto" refX="0" refY="0" style="overflow:visible"><path id="path3941-6" d="m -2.5,-1 c 0,2.76 -2.24,5 -5,5 -2.76,0 -5,-2.24 -5,-5 0,-2.76 2.24,-5 5,-5 2.76,0 5,2.24 5,5 z" transform="matrix(0.2,0,0,0.2,1.48,0.2)" style="fill-rule:evenodd;stroke:#000;stroke-width:1pt;marker-start:none;marker-end:none"/></marker><marker id="Arrow1Send-7" orient="auto" refX="0" refY="0" style="overflow:visible"><path id="path3888-3" d="M 0,0 5,-5 -12.5,0 5,5 0,0 z" transform="matrix(-0.2,0,0,-0.2,-1.2,0)" style="fill-rule:evenodd;stroke:#000;stroke-width:1pt;marker-start:none"/></marker><marker id="DotS-1" orient="auto" refX="0" refY="0" style="overflow:visible"><path id="path3941-63" d="m -2.5,-1 c 0,2.76 -2.24,5 -5,5 -2.76,0 -5,-2.24 -5,-5 0,-2.76 2.24,-5 5,-5 2.76,0 5,2.24 5,5 z" transform="matrix(0.2,0,0,0.2,1.48,0.2)" style="fill-rule:evenodd;stroke:#000;stroke-width:1pt;marker-start:none;marker-end:none"/></marker><marker id="Arrow1Send-8" orient="auto" refX="0" refY="0" style="overflow:visible"><path id="path3888-6" d="M 0,0 5,-5 -12.5,0 5,5 0,0 z" transform="matrix(-0.2,0,0,-0.2,-1.2,0)" style="fill-rule:evenodd;stroke:#000;stroke-width:1pt;marker-start:none"/></marker><marker id="DotS-1-7" orient="auto" refX="0" refY="0" style="overflow:visible"><path id="path3941-63-9" d="m -2.5,-1 c 0,2.76 -2.24,5 -5,5 -2.76,0 -5,-2.24 -5,-5 0,-2.76 2.24,-5 5,-5 2.76,0 5,2.24 5,5 z" transform="matrix(0.2,0,0,0.2,1.48,0.2)" style="fill-rule:evenodd;stroke:#000;stroke-width:1pt;marker-start:none;marker-end:none"/></marker><marker id="Arrow1Send-8-4" orient="auto" refX="0" refY="0" style="overflow:visible"><path id="path3888-6-4" d="M 0,0 5,-5 -12.5,0 5,5 0,0 z" transform="matrix(-0.2,0,0,-0.2,-1.2,0)" style="fill-rule:evenodd;stroke:#000;stroke-width:1pt;marker-start:none"/></marker><marker id="DotS-4" orient="auto" refX="0" refY="0" style="overflow:visible"><path id="path3941-4" d="m -2.5,-1 c 0,2.76 -2.24,5 -5,5 -2.76,0 -5,-2.24 -5,-5 0,-2.76 2.24,-5 5,-5 2.76,0 5,2.24 5,5 z" transform="matrix(0.2,0,0,0.2,1.48,0.2)" style="fill-rule:evenodd;stroke:#000;stroke-width:1pt;marker-start:none;marker-end:none"/></marker><marker id="Arrow1Send-79" orient="auto" refX="0" refY="0" style="overflow:visible"><path id="path3888-8" d="M 0,0 5,-5 -12.5,0 5,5 0,0 z" transform="matrix(-0.2,0,0,-0.2,-1.2,0)" style="fill-rule:evenodd;stroke:#000;stroke-width:1pt;marker-start:none"/></marker><marker id="DotS-11" orient="auto" refX="0" refY="0" style="overflow:visible"><path id="path3941-9" d="m -2.5,-1 c 0,2.76 -2.24,5 -5,5 -2.76,0 -5,-2.24 -5,-5 0,-2.76 2.24,-5 5,-5 2.76,0 5,2.24 5,5 z" transform="matrix(0.2,0,0,0.2,1.48,0.2)" style="fill-rule:evenodd;stroke:#000;stroke-width:1pt;marker-start:none;marker-end:none"/></marker><marker id="Arrow1Send-0" orient="auto" refX="0" refY="0" style="overflow:visible"><path id="path3888-0" d="M 0,0 5,-5 -12.5,0 5,5 0,0 z" transform="matrix(-0.2,0,0,-0.2,-1.2,0)" style="fill-rule:evenodd;stroke:#000;stroke-width:1pt;marker-start:none"/></marker><marker id="DotS-2" orient="auto" refX="0" refY="0" style="overflow:visible"><path id="path3941-96" d="m -2.5,-1 c 0,2.76 -2.24,5 -5,5 -2.76,0 -5,-2.24 -5,-5 0,-2.76 2.24,-5 5,-5 2.76,0 5,2.24 5,5 z" transform="matrix(0.2,0,0,0.2,1.48,0.2)" style="fill-rule:evenodd;stroke:#000;stroke-width:1pt;marker-start:none;marker-end:none"/></marker><marker id="Arrow1Send-2" orient="auto" refX="0" refY="0" style="overflow:visible"><path id="path3888-4" d="M 0,0 5,-5 -12.5,0 5,5 0,0 z" transform="matrix(-0.2,0,0,-0.2,-1.2,0)" style="fill-rule:evenodd;stroke:#000;stroke-width:1pt;marker-start:none"/></marker><marker id="DotS-1-72" orient="auto" refX="0" refY="0" style="overflow:visible"><path id="path3941-63-1" d="m -2.5,-1 c 0,2.76 -2.24,5 -5,5 -2.76,0 -5,-2.24 -5,-5 0,-2.76 2.24,-5 5,-5 2.76,0 5,2.24 5,5 z" transform="matrix(0.2,0,0,0.2,1.48,0.2)" style="fill-rule:evenodd;stroke:#000;stroke-width:1pt;marker-start:none;marker-end:none"/></marker><marker id="Arrow1Send-8-8" orient="auto" refX="0" refY="0" style="overflow:visible"><path id="path3888-6-8" d="M 0,0 5,-5 -12.5,0 5,5 0,0 z" transform="matrix(-0.2,0,0,-0.2,-1.2,0)" style="fill-rule:evenodd;stroke:#000;stroke-width:1pt;marker-start:none"/></marker><marker id="DotS-67" orient="auto" refX="0" refY="0" style="overflow:visible"><path id="path3941-5" d="m -2.5,-1 c 0,2.76 -2.24,5 -5,5 -2.76,0 -5,-2.24 -5,-5 0,-2.76 2.24,-5 5,-5 2.76,0 5,2.24 5,5 z" transform="matrix(0.2,0,0,0.2,1.48,0.2)" style="fill-rule:evenodd;stroke:#000;stroke-width:1pt;marker-start:none;marker-end:none"/></marker><marker id="Arrow1Send-78" orient="auto" refX="0" refY="0" style="overflow:visible"><path id="path3888-89" d="M 0,0 5,-5 -12.5,0 5,5 0,0 z" transform="matrix(-0.2,0,0,-0.2,-1.2,0)" style="fill-rule:evenodd;stroke:#000;stroke-width:1pt;marker-start:none"/></marker><marker id="DotS-1-6" orient="auto" refX="0" refY="0" style="overflow:visible"><path id="path3941-63-5" d="m -2.5,-1 c 0,2.76 -2.24,5 -5,5 -2.76,0 -5,-2.24 -5,-5 0,-2.76 2.24,-5 5,-5 2.76,0 5,2.24 5,5 z" transform="matrix(0.2,0,0,0.2,1.48,0.2)" style="fill-rule:evenodd;stroke:#000;stroke-width:1pt;marker-start:none;marker-end:none"/></marker><marker id="Arrow1Send-8-3" orient="auto" refX="0" refY="0" style="overflow:visible"><path id="path3888-6-5" d="M 0,0 5,-5 -12.5,0 5,5 0,0 z" transform="matrix(-0.2,0,0,-0.2,-1.2,0)" style="fill-rule:evenodd;stroke:#000;stroke-width:1pt;marker-start:none"/></marker><marker id="DotS-1-8" orient="auto" refX="0" refY="0" style="overflow:visible"><path id="path3941-63-18" d="m -2.5,-1 c 0,2.76 -2.24,5 -5,5 -2.76,0 -5,-2.24 -5,-5 0,-2.76 2.24,-5 5,-5 2.76,0 5,2.24 5,5 z" transform="matrix(0.2,0,0,0.2,1.48,0.2)" style="fill-rule:evenodd;stroke:#000;stroke-width:1pt;marker-start:none;marker-end:none"/></marker><marker id="Arrow1Send-8-35" orient="auto" refX="0" refY="0" style="overflow:visible"><path id="path3888-6-2" d="M 0,0 5,-5 -12.5,0 5,5 0,0 z" transform="matrix(-0.2,0,0,-0.2,-1.2,0)" style="fill-rule:evenodd;stroke:#000;stroke-width:1pt;marker-start:none"/></marker></defs><metadata id="metadata10307"/><g id="debuggeeset" class="flip" style="display:inline"><rect style="fill:#c8c0c0;fill-opacity:1;stroke:#000;stroke-width:2.18226266;stroke-miterlimit:4;stroke-opacity:1;stroke-dasharray:4.36452564,4.36452564;stroke-dashoffset:0;display:inline" id="rect3755-3-0-6-1-8-6" width="171.317" height="150.685" x=".11" y="248.55" rx="4.035" ry="4.814"/><text style="font-size:14.11999989px;font-style:normal;font-weight:400;line-height:125%;letter-spacing:0;word-spacing:0;fill:#000;fill-opacity:1;stroke:none;display:inline;font-family:Sans" id="text22690" x="9.875" y="268.844" xml:space="preserve"><tspan id="tspan22692" x="9.875" y="268.844">Debugger</tspan></text></g><g id="shadows" class="flip" style="display:inline"><rect style="fill:#969696;fill-opacity:1;stroke:none;display:inline" id="rect3755-5-68" width="119.421" height="42.398" x="25.236" y="160.02" rx="11.065" ry="11.065"/><rect style="fill:#969696;fill-opacity:1;stroke:none;display:inline" id="rect3755-3-0-6-1-8" width="177.655" height="46.615" x="209.361" y="336.42" rx="4.039" ry="4.039"/><rect style="fill:#969696;fill-opacity:1;stroke:none;display:inline" id="rect3755-3-0-6-1-3-43" width="149.122" height="46.615" x="237.894" y="287.164" rx="4.039" ry="4.039"/><rect style="fill:#969696;fill-opacity:1;stroke:none;display:inline" id="rect3755-5-6-1" width="119.421" height="42.398" x="192.177" y="161.099" rx="11.065" ry="11.065"/><rect style="fill:#969696;fill-opacity:1;stroke:none;display:inline" id="rect3755-5-2-4" width="136.405" height="46.615" x="26.006" y="336.42" rx="11.065" ry="11.065"/><rect style="fill:#969696;fill-opacity:1;stroke:none;display:inline" id="rect3755-1-5-9" width="242.772" height="75.739" x="183.318" y="47.055" rx="6.125" ry="6.125"/><rect style="fill:#969696;fill-opacity:1;stroke:#fff;stroke-width:2.92859435;stroke-miterlimit:4;stroke-opacity:1;stroke-dasharray:none;display:inline" id="rect3755-1-5-1-7-2" width="186.276" height="18.675" x="285.598" y="66.984" rx="6.125" ry="6.125"/><rect style="fill:#969696;fill-opacity:1;stroke:none;display:inline" id="rect3755-3-0-6-1-1-0" width="194.03" height="46.615" x="413.202" y="336.42" rx="4.039" ry="4.039"/><rect style="fill:#969696;fill-opacity:1;stroke:none;display:inline" id="rect3755-3-0-6-1-3-4-6" width="90.035" height="46.615" x="296.98" y="237.91" rx="4.039" ry="4.039"/><text style="font-size:12.93533993px;font-style:normal;font-weight:400;line-height:125%;letter-spacing:0;word-spacing:0;fill:#000;fill-opacity:1;stroke:none;display:inline;font-family:Sans" id="text4037" x="33.258" y="378.201" xml:space="preserve"><tspan id="tspan4039" x="33.258" y="378.201">Debugger.Object</tspan></text><text style="font-size:12.93533993px;font-style:normal;font-weight:400;line-height:125%;letter-spacing:0;word-spacing:0;fill:#000;fill-opacity:1;stroke:none;display:inline;font-family:Sans" id="text4041" x="218.723" y="377.522" xml:space="preserve"><tspan id="tspan4043" x="218.723" y="377.522">Debugger.Environment</tspan></text><text style="font-size:12.93533993px;font-style:normal;font-weight:400;line-height:125%;letter-spacing:0;word-spacing:0;fill:#000;fill-opacity:1;stroke:none;display:inline;font-family:Sans" id="text4045" x="421.849" y="377.522" xml:space="preserve"><tspan id="tspan4047" x="421.849" y="377.522">Debugger.Frame</tspan></text><text style="font-size:12.93533993px;font-style:normal;font-weight:400;line-height:125%;letter-spacing:0;word-spacing:0;fill:#000;fill-opacity:1;stroke:none;display:inline;font-family:Sans" id="text4049" x="29.181" y="196.813" xml:space="preserve"><tspan id="tspan4051" x="29.181" y="196.813">Debugger.Object</tspan></text><text style="font-size:12.93533993px;font-style:normal;font-weight:400;line-height:125%;letter-spacing:0;word-spacing:0;fill:#000;fill-opacity:1;stroke:none;display:inline;font-family:Sans" id="text4053" x="199.222" y="197.892" xml:space="preserve"><tspan id="tspan4055" x="199.222" y="197.892">Debugger.Object</tspan></text><text style="font-size:12.93533993px;font-style:normal;font-weight:400;line-height:125%;letter-spacing:0;word-spacing:0;fill:#000;fill-opacity:1;stroke:none;display:inline;font-family:Sans" id="text4057" x="190.189" y="118.008" xml:space="preserve"><tspan id="tspan4059" x="190.189" y="118.008">Debugger.Script</tspan></text><rect style="fill:#969696;fill-opacity:1;stroke:none;display:inline" id="rect3755-3-0-6-1-1-5-8" width="194.03" height="46.615" x="413.202" y="287.164" rx="4.039" ry="4.039"/></g><g id="global" class="flip" transform="translate(0,-344.09448)" style="display:inline"><rect style="fill:#ffd257;fill-opacity:1;stroke:none;display:inline" id="rect3755-3-0-6-1" width="177.927" height="46.615" x="201.82" y="664.159" class="nonvalue" rx="4.039" ry="4.039"/><text style="font-size:14.12208748px;font-style:normal;font-weight:400;line-height:125%;letter-spacing:0;word-spacing:0;fill:#000;fill-opacity:1;stroke:none;font-family:Sans" id="text10970" x="210.634" y="691.887" transform="scale(1.0007628,0.99923778)" xml:space="preserve"><tspan id="tspan10972" x="210.634" y="691.887">global environment</tspan></text><rect style="fill:#83d4ff;fill-opacity:1;stroke:none" id="rect3755-5-2" width="136.614" height="46.615" x="18.811" y="664.159" rx="11.065" ry="11.065"/><path style="fill:none;stroke:#000;stroke-width:2.99999976;stroke-linecap:butt;stroke-linejoin:miter;stroke-miterlimit:4;stroke-opacity:1;stroke-dasharray:none;marker-start:url(#DotS-1);marker-end:url(#Arrow1Send-8)" id="path11163-2" d="m 204.0527,687.46628 -46.26685,0"/><text style="font-size:14.12208748px;font-style:normal;font-weight:400;line-height:125%;letter-spacing:0;word-spacing:0;fill:#000;fill-opacity:1;stroke:none;font-family:Sans" id="text15699" x="3.02" y="659.444" transform="scale(1.0007628,0.99923778)" xml:space="preserve"><tspan id="tspan15701" x="3.02" y="659.444">global object:</tspan></text><text style="font-size:14.12208748px;font-style:normal;font-weight:400;text-align:center;line-height:125%;letter-spacing:0;word-spacing:0;text-anchor:middle;fill:#000;fill-opacity:1;stroke:none;font-family:Sans" id="text15703" x="87.051" y="698.414" transform="scale(1.0007628,0.99923778)" xml:space="preserve"><tspan id="tspan15707" x="87.051" y="698.414">Date; Math; ...</tspan></text></g><g id="scripts" class="flip" style="display:inline"><rect style="fill:#83ff9a;fill-opacity:1;stroke:none;display:inline" id="rect3755-1-5" width="243.144" height="75.74" x="176.363" y="683.061" class="nonvalue" rx="6.125" ry="6.125" transform="translate(0,-652.36218)"/><rect style="fill:#83ff9a;fill-opacity:1;stroke:#e6e4dd;stroke-width:2.92859435000000001;stroke-miterlimit:4;stroke-opacity:1;stroke-dasharray:none;display:inline" id="rect3755-1-5-1-7" width="186.561" height="18.675" x="278.799" y="702.99" class="nonvalue" rx="6.125" ry="6.125" transform="translate(0,-652.36218)"/></g><g id="code" class="flip" style="display:inline"><text style="font-size:14.12208748px;font-style:normal;font-weight:400;line-height:125%;letter-spacing:0;word-spacing:0;fill:#000;fill-opacity:1;stroke:none;display:inline;font-family:Sans" id="text10314" x="183" y="699.527" transform="matrix(1.0007628,0,0,0.99923777,0,-652.36218)" xml:space="preserve"><tspan id="tspan4518" x="183" y="699.527">function alertLater(msg, delay) {</tspan><tspan id="tspan4527" x="183" y="717.179"> setTimeout( function () { alert(msg); },</tspan><tspan id="tspan4529" x="183" y="734.832"> delay);</tspan><tspan id="tspan4531" x="183" y="752.485">}</tspan></text></g><g id="alertLater" class="flip" style="display:inline"><rect style="fill:#83d4ff;fill-opacity:1;stroke:none;display:inline" id="rect3755-5" width="119.604" height="42.398" x="18.04" y="796.026" rx="11.065" ry="11.065" transform="translate(0,-652.36218)"/><text style="font-size:13.91893291px;font-style:normal;font-weight:400;text-align:end;line-height:125%;letter-spacing:0;word-spacing:0;text-anchor:end;fill:#000;fill-opacity:1;stroke:none;display:inline;font-family:Sans" id="text3761-6" x="98.428" y="811.158" transform="matrix(1.0007628,0,0,0.99923778,0,-652.36218)" xml:space="preserve"><tspan id="tspan3763-0" x="98.428" y="811.158">[[Code]]:</tspan></text><text style="font-size:13.91893291px;font-style:normal;font-weight:400;text-align:end;line-height:125%;letter-spacing:0;word-spacing:0;text-anchor:end;fill:#000;fill-opacity:1;stroke:none;display:inline;font-family:Sans" id="text3765-0" x="98.428" y="831.649" transform="matrix(1.0007628,0,0,0.99923778,0,-652.36218)" xml:space="preserve"><tspan id="tspan3767-2" x="98.428" y="831.649">[[Scope]]:</tspan></text><path style="fill:none;stroke:#e6e4dd;stroke-width:2.95684338000000002;stroke-linecap:butt;stroke-linejoin:miter;stroke-miterlimit:4;stroke-opacity:1;stroke-dasharray:none;display:inline" id="path3773-4-3" d="m 18.039736,817.89404 119.601824,0" transform="translate(0,-652.36218)"/><text style="font-size:14.12208748px;font-style:normal;font-weight:400;line-height:125%;letter-spacing:0;word-spacing:0;fill:#000;fill-opacity:1;stroke:none;display:inline;font-family:Sans" id="text10404" x="2.407" y="791.508" transform="matrix(1.0007628,0,0,0.99923778,0,-652.36218)" xml:space="preserve"><tspan id="tspan10406" x="2.407" y="791.508">alertLater:</tspan></text><path style="fill:none;stroke:#000;stroke-width:3;stroke-linecap:butt;stroke-linejoin:miter;stroke-miterlimit:4;stroke-opacity:1;stroke-dasharray:none;marker-start:url(#DotS);marker-end:url(#Arrow1Send);display:inline" id="path3868-4" d="m 113.60688,806.63271 c 0,-45.02374 23.466,-83.54273 59.2075,-83.54273" transform="translate(0,-652.36218)"/><path style="fill:none;stroke:#000;stroke-width:3;stroke-linecap:butt;stroke-linejoin:miter;stroke-miterlimit:4;stroke-opacity:1;stroke-dasharray:none;marker-start:url(#DotS);marker-end:url(#Arrow1Send);display:inline" id="path3868-4-0" d="m 113.60688,827.22105 c 51.73315,0 90.50566,99.84829 90.50566,141.32477" transform="translate(0,-652.36218)"/><text style="font-size:14.12208748px;font-style:normal;font-weight:400;text-align:center;line-height:125%;letter-spacing:0;word-spacing:0;text-anchor:middle;fill:#000;fill-opacity:1;stroke:none;display:inline;font-family:Sans" id="text15703-4" x="87.051" y="991.618" transform="matrix(1.0007628,0,0,0.99923778,0,-652.36218)" xml:space="preserve"><tspan id="tspan15707-0" x="89.299" y="991.618">alertLater;</tspan></text></g><g id="call1env" class="flip" style="display:inline"><rect style="fill:#ffd257;fill-opacity:1;stroke:none;display:inline" id="rect3755-3-0-6-1-3" width="149.35" height="46.615" x="229.789" y="270.808" class="nonvalue" rx="4.039" ry="4.039"/><g style="display:inline" id="g3550" transform="matrix(0.58886915,0,0,0.58797179,4.5262952,-176.54364)"><text id="text13153" x="499.133" y="795.716" transform="scale(1.0009935,0.9990075)" xml:space="preserve" style="font-size:22px;font-style:normal;font-weight:400;text-align:end;line-height:125%;letter-spacing:0;word-spacing:0;text-anchor:end;fill:#000;fill-opacity:1;stroke:none;font-family:Sans"><tspan id="tspan13155" x="499.133" y="795.716">msg:</tspan><tspan id="tspan3538" x="499.133" y="823.216">delay:</tspan></text><text id="text3540" x="507" y="794.926" xml:space="preserve" style="font-size:22px;font-style:normal;font-weight:400;line-height:125%;letter-spacing:0;word-spacing:0;fill:#000;fill-opacity:1;stroke:none;font-family:Sans"><tspan id="tspan3542" x="507" y="794.926">&apos;xlerb&apos;</tspan><tspan id="tspan3544" x="507" y="822.426">1000</tspan></text></g></g><g id="anon" class="flip" style="display:inline"><rect style="fill:#83d4ff;fill-opacity:1;stroke:none;display:inline" id="rect3755-5-6" width="119.604" height="42.398" x="185.843" y="143.664" rx="11.065" ry="11.065"/><text style="font-size:13.91893291px;font-style:normal;font-weight:400;text-align:end;line-height:125%;letter-spacing:0;word-spacing:0;text-anchor:end;fill:#000;fill-opacity:1;stroke:none;display:inline;font-family:Sans" id="text3761-6-0" x="266.103" y="158.298" transform="scale(1.0007628,0.99923778)" xml:space="preserve"><tspan id="tspan3763-0-7" x="266.103" y="158.298">[[Code]]:</tspan></text><text style="font-size:13.91893291px;font-style:normal;font-weight:400;text-align:end;line-height:125%;letter-spacing:0;word-spacing:0;text-anchor:end;fill:#000;fill-opacity:1;stroke:none;display:inline;font-family:Sans" id="text3765-0-7" x="266.103" y="178.789" transform="scale(1.0007628,0.99923778)" xml:space="preserve"><tspan id="tspan3767-2-6" x="266.103" y="178.789">[[Scope]]:</tspan></text><path style="fill:none;stroke:#e6e4dd;stroke-width:2.95684338000000002;stroke-linecap:butt;stroke-linejoin:miter;stroke-miterlimit:4;stroke-opacity:1;stroke-dasharray:none;display:inline" id="path3773-4-3-4" d="m 185.84293,165.53187 119.60182,0"/><path style="fill:none;stroke:#000;stroke-width:3;stroke-linecap:butt;stroke-linejoin:miter;stroke-miterlimit:4;stroke-opacity:1;stroke-dasharray:none;marker-start:url(#DotS);marker-end:url(#Arrow1Send);display:inline" id="path3868-4-0-4-7" d="m 285.44496,176.59077 c 0,31.25836 -38.08897,59.76616 -38.08897,91.05227"/><path style="fill:none;stroke:#000;stroke-width:3;stroke-linecap:butt;stroke-linejoin:miter;stroke-miterlimit:4;stroke-opacity:1;stroke-dasharray:none;marker-start:url(#DotS);marker-end:url(#Arrow1Send);display:inline" id="path3868-4-4" d="m 285.95088,154.47813 c 165.68371,0 170.77148,-32.93057 158.20494,-82.18402"/></g><g id="fire" class="flip" style="display:inline"><rect style="fill:#ff9457;fill-opacity:1;stroke:none;display:inline" id="rect3755-3-0-6-1-1-4" width="194.03" height="46.615" x="406.385" y="320.064" class="nonvalue" rx="4.039" ry="4.039"/><text style="font-size:12.93533993px;font-style:normal;font-weight:400;line-height:125%;letter-spacing:0;word-spacing:0;fill:#000;fill-opacity:1;stroke:none;display:inline;font-family:Sans" id="text10970-7-4" x="434.11" y="346.934" xml:space="preserve"><tspan id="tspan3534-4" x="434.11" y="346.934"><tspan style="font-style:italic;-inkscape-font-specification:Sans Italic" id="tspan5754">anonymous</tspan>()</tspan></text><rect style="fill:#ffd257;fill-opacity:1;stroke:none;display:inline" id="rect3755-3-0-6-1-3-4" width="90.035" height="46.615" x="289.103" y="221.555" class="nonvalue" rx="4.039" ry="4.039"/><text style="font-size:12.93533993px;font-style:italic;font-weight:400;line-height:125%;letter-spacing:0;word-spacing:0;fill:#000;fill-opacity:1;stroke:none;display:inline;font-family:Sans;-inkscape-font-specification:Sans Italic" id="text5774" x="312.997" y="248.058" xml:space="preserve"><tspan id="tspan5776" x="312.997" y="248.058">empty</tspan></text><path style="fill:none;stroke:#000;stroke-width:3;stroke-linecap:butt;stroke-linejoin:miter;stroke-miterlimit:4;stroke-opacity:1;stroke-dasharray:none;marker-start:url(#DotS-1);marker-end:url(#Arrow1Send-8);display:inline" id="path11163-1" d="m 415.85979,342.35006 c -51.09645,0 11.10573,-95.59507 -39.0289,-95.59507"/><path style="fill:none;stroke:#000;stroke-width:3;stroke-linecap:butt;stroke-linejoin:miter;stroke-miterlimit:4;stroke-opacity:1;stroke-dasharray:none;marker-start:url(#DotS-1);marker-end:url(#Arrow1Send-8);display:inline" id="path11163-1-6" d="m 588.68444,343.33325 c 66.19678,0 27.60009,-283.14206 -117.22439,-283.14206"/></g><g id="call2" class="flip" style="display:inline"><rect style="fill:#ff9457;fill-opacity:1;stroke:none;display:inline" id="rect3755-3-0-6-1-1-5-4" width="194.03" height="46.615" x="406.385" y="270.808" class="nonvalue" rx="4.039" ry="4.039"/><text style="font-size:12.93533993px;font-style:normal;font-weight:400;line-height:125%;letter-spacing:0;word-spacing:0;fill:#000;fill-opacity:1;stroke:none;display:inline;font-family:Sans" id="text6389" x="433.863" y="298.871" xml:space="preserve"><tspan id="tspan6391" x="433.863" y="298.871">alert(&apos;xlerb&apos;)</tspan></text></g></svg>