<svg xmlns="http://www.w3.org/2000/svg" xmlns:xlink="http://www.w3.org/1999/xlink"><defs><filter id="BlendNormal"><feOffset dx="75" dy="0" in="SourceGraphic" result="temp"/><feBlend in="temp" in2="SourceGraphic" mode="normal"/></filter><filter id="BlendMultiply"><feOffset dx="75" dy="0" in="SourceGraphic" result="temp"/><feBlend in="temp" in2="SourceGraphic" mode="multiply"/></filter><filter id="BlendScreen"><feOffset dx="75" dy="0" in="SourceGraphic" result="temp"/><feBlend in="temp" in2="SourceGraphic" mode="screen"/></filter><filter id="BlendDarken"><feOffset dx="75" dy="0" in="SourceGraphic" result="temp"/><feBlend in="temp" in2="SourceGraphic" mode="darken"/></filter><filter id="BlendLighten"><feOffset dx="75" dy="0" in="SourceGraphic" result="temp"/><feBlend in="temp" in2="SourceGraphic" mode="lighten"/></filter><filter id="noblend"><feOffset dx="75" dy="0" in="SourceGraphic" result="temp"/><feMerge><feMergeNode in="SourceGraphic"/><feMergeNode in="temp"/></feMerge></filter><radialGradient id="grad"><stop offset="0" stop-color="#ff0"/><stop offset="1" stop-color="#90ee90"/></radialGradient><g id="swatch"><rect width="75" height="75" x="0" y="0" fill="#add8e6"/><rect width="75" height="75" x="75" y="0" fill="url(#grad)"/></g><g id="swatchHalf"><rect width="75" height="75" x="0" y="0" fill="#add8e6" opacity=".5"/><rect width="75" height="75" x="75" y="0" fill="url(#grad)" opacity=".5"/></g><g id="mask"><rect width="75" height="75" x="0" y="0" fill="#fff"/><rect width="75" height="75" x="150" y="0" fill="#fff"/></g></defs><use x="0" y="25" filter="url(#BlendNormal)" xlink:href="#swatch"/><use x="0" y="25" xlink:href="#mask"/><use x="150" y="25" filter="url(#BlendNormal)" xlink:href="#swatchHalf"/><use x="150" y="25" xlink:href="#mask"/><text x="10" y="50">normal</text><use x="0" y="125" filter="url(#BlendMultiply)" xlink:href="#swatch"/><use x="0" y="125" xlink:href="#mask"/><use x="150" y="125" filter="url(#BlendMultiply)" xlink:href="#swatchHalf"/><use x="150" y="125" xlink:href="#mask"/><text x="10" y="150">multiply</text><use x="0" y="225" filter="url(#BlendScreen)" xlink:href="#swatch"/><use x="0" y="225" xlink:href="#mask"/><use x="150" y="225" filter="url(#BlendScreen)" xlink:href="#swatchHalf"/><use x="150" y="225" xlink:href="#mask"/><text x="10" y="250">screen</text><use x="0" y="325" filter="url(#BlendDarken)" xlink:href="#swatch"/><use x="0" y="325" xlink:href="#mask"/><use x="150" y="325" filter="url(#BlendDarken)" xlink:href="#swatchHalf"/><use x="150" y="325" xlink:href="#mask"/><text x="10" y="350">darken</text><use x="0" y="425" filter="url(#BlendLighten)" xlink:href="#swatch"/><use x="0" y="425" xlink:href="#mask"/><use x="150" y="425" filter="url(#BlendLighten)" xlink:href="#swatchHalf"/><use x="150" y="425" xlink:href="#mask"/><text x="10" y="450">lighten</text><use x="0" y="525" filter="url(#noblend)" xlink:href="#swatch"/><use x="0" y="525" xlink:href="#mask"/><use x="150" y="525" filter="url(#noblend)" xlink:href="#swatchHalf"/><use x="150" y="525" xlink:href="#mask"/><text x="10" y="550">no blend</text></svg>