<svg xmlns="http://www.w3.org/2000/svg" xmlns:xlink="http://www.w3.org/1999/xlink"><style>@font-face{font-family:Linux Libertine;src:url(../../fonts/LinLibertine_Re-4.7.5.woff)}svg{font:50px Linux Libertine;text-rendering:geometricPrecision}</style><linearGradient id="aqua"><stop stop-color="#0ff"/></linearGradient><g><g stroke="red" transform="translate(50,0)"><path id="p1" d="M 0,40 v 66"/><path id="p2" d="M 40,40 v 132"/><path id="p3" d="M 80,40 v 132"/><path id="p4" d="M 120,40 v 44"/><path id="p5" d="M 160,40 v 44"/></g><g fill="url(#aqua)" transform="translate(50,0)"><text><textPath xlink:href="#p1">123</textPath></text><text textLength="132"><textPath xlink:href="#p2">123</textPath></text><text id="t" lengthAdjust="spacingAndGlyphs" textLength="132"><textPath xlink:href="#p3">123</textPath></text><text textLength="44"><textPath xlink:href="#p4">123</textPath></text><text lengthAdjust="spacingAndGlyphs" textLength="44"><textPath xlink:href="#p5">123</textPath></text></g><g fill="none" stroke="#000" stroke-width="2"><text y="40" transform="translate(50,0) translate(40,40)rotate(90)">123</text><text y="40" transform="translate(50,0) translate(80,40)rotate(90)">1</text><text x="66" y="40" text-anchor="middle" transform="translate(50,0) translate(80,40)rotate(90)">2</text><text x="132" y="40" text-anchor="end" transform="translate(50,0) translate(80,40)rotate(90)">3</text><text transform="translate(50,0) translate(80,40)rotate(90)scale(2,1)">123</text><text transform="translate(50,0) translate(120,40)rotate(90)">1</text><text x="22" text-anchor="middle" transform="translate(50,0) translate(120,40)rotate(90)">2</text><text x="44" text-anchor="end" transform="translate(50,0) translate(120,40)rotate(90)">3</text><text transform="translate(50,0) translate(160,40)rotate(90)scale(0.66666666,1)">123</text></g></g></svg>