<svg xmlns="http://www.w3.org/2000/svg"><rect width="50" height="50" x="0" y="0" fill="#DFB53F"/><rect width="50" height="50" x="50" y="0" fill="#B5B53F"/><rect width="50" height="50" x="100" y="0" fill="#DFDF3F"/><rect width="50" height="50" x="150" y="0" fill="#B5B53F"/><rect width="50" height="50" x="200" y="0" fill="#DFDF3F"/><rect width="50" height="50" x="250" y="0" fill="#B5DF3F"/><rect width="50" height="50" x="300" y="0" fill="#B5DF3F"/><rect width="50" height="50" x="350" y="0" fill="#B5DF3F"/><rect width="50" height="50" x="0" y="50" fill="#DFB53F"/><rect width="50" height="50" x="50" y="50" fill="#B5DF3F"/><rect width="50" height="50" x="100" y="50" fill="#DFDF3F"/><rect width="50" height="50" x="150" y="50" fill="#DFDF3F"/><rect width="50" height="50" x="200" y="50" fill="#DFC88E"/><rect width="50" height="50" x="250" y="50" fill="#B5DF3F"/><rect width="50" height="50" x="300" y="50" fill="#DFC88E"/><rect width="50" height="50" x="350" y="50" fill="#B5CC3F"/><rect width="50" height="50" x="0" y="100" fill="#DFB53F"/></svg>