<svg xmlns="http://www.w3.org/2000/svg" xmlns:xlink="http://www.w3.org/1999/xlink" width="100%" height="100%"><filter id="f0" width="100%" height="100%" x="0%" y="0%"><feFlood flood-color="red" flood-opacity=".5" result="a"/><feFlood flood-color="#0F0" flood-opacity=".5" result="b"/><feBlend in="a" in2="b" mode="normal"/></filter><rect width="50" height="50" x="0" y="0" filter="url(#f0)"/><filter id="f1" width="100%" height="100%" x="0%" y="0%"><feFlood flood-color="red" flood-opacity=".5" result="a"/><feFlood flood-color="#0F0" flood-opacity=".5" result="b"/><feBlend in="a" in2="b" mode="multiply"/></filter><rect width="50" height="50" x="50" y="0" filter="url(#f1)"/><filter id="f2" width="100%" height="100%" x="0%" y="0%"><feFlood flood-color="red" flood-opacity=".5" result="a"/><feFlood flood-color="#0F0" flood-opacity=".5" result="b"/><feBlend in="a" in2="b" mode="screen"/></filter><rect width="50" height="50" x="100" y="0" filter="url(#f2)"/><filter id="f3" width="100%" height="100%" x="0%" y="0%"><feFlood flood-color="red" flood-opacity=".5" result="a"/><feFlood flood-color="#0F0" flood-opacity=".5" result="b"/><feBlend in="a" in2="b" mode="darken"/></filter><rect width="50" height="50" x="150" y="0" filter="url(#f3)"/><filter id="f4" width="100%" height="100%" x="0%" y="0%"><feFlood flood-color="red" flood-opacity=".5" result="a"/><feFlood flood-color="#0F0" flood-opacity=".5" result="b"/><feBlend in="a" in2="b" mode="lighten"/></filter><rect width="50" height="50" x="200" y="0" filter="url(#f4)"/><filter id="f5" width="100%" height="100%" x="0%" y="0%"><feFlood flood-color="red" flood-opacity=".5" result="a"/><feFlood flood-color="#0F0" flood-opacity=".5" result="b"/><feBlend in="a" in2="b" mode="overlay"/></filter><rect width="50" height="50" x="250" y="0" filter="url(#f5)"/><filter id="f6" width="100%" height="100%" x="0%" y="0%"><feFlood flood-color="red" flood-opacity=".5" result="a"/><feFlood flood-color="#0F0" flood-opacity=".5" result="b"/><feBlend in="a" in2="b" mode="color-dodge"/></filter><rect width="50" height="50" x="300" y="0" filter="url(#f6)"/><filter id="f7" width="100%" height="100%" x="0%" y="0%"><feFlood flood-color="red" flood-opacity=".5" result="a"/><feFlood flood-color="#0F0" flood-opacity=".5" result="b"/><feBlend in="a" in2="b" mode="color-burn"/></filter><rect width="50" height="50" x="350" y="0" filter="url(#f7)"/><filter id="f8" width="100%" height="100%" x="0%" y="0%"><feFlood flood-color="red" flood-opacity=".5" result="a"/><feFlood flood-color="#0F0" flood-opacity=".5" result="b"/><feBlend in="a" in2="b" mode="hard-light"/></filter><rect width="50" height="50" x="0" y="50" filter="url(#f8)"/><filter id="f9" width="100%" height="100%" x="0%" y="0%"><feFlood flood-color="red" flood-opacity=".5" result="a"/><feFlood flood-color="#0F0" flood-opacity=".5" result="b"/><feBlend in="a" in2="b" mode="soft-light"/></filter><rect width="50" height="50" x="50" y="50" filter="url(#f9)"/><filter id="f10" width="100%" height="100%" x="0%" y="0%"><feFlood flood-color="red" flood-opacity=".5" result="a"/><feFlood flood-color="#0F0" flood-opacity=".5" result="b"/><feBlend in="a" in2="b" mode="difference"/></filter><rect width="50" height="50" x="100" y="50" filter="url(#f10)"/><filter id="f11" width="100%" height="100%" x="0%" y="0%"><feFlood flood-color="red" flood-opacity=".5" result="a"/><feFlood flood-color="#0F0" flood-opacity=".5" result="b"/><feBlend in="a" in2="b" mode="exclusion"/></filter><rect width="50" height="50" x="150" y="50" filter="url(#f11)"/><filter id="f12" width="100%" height="100%" x="0%" y="0%"><feFlood flood-color="red" flood-opacity=".5" result="a"/><feFlood flood-color="#0F0" flood-opacity=".5" result="b"/><feBlend in="a" in2="b" mode="hue"/></filter><rect width="50" height="50" x="200" y="50" filter="url(#f12)"/><filter id="f13" width="100%" height="100%" x="0%" y="0%"><feFlood flood-color="red" flood-opacity=".5" result="a"/><feFlood flood-color="#0F0" flood-opacity=".5" result="b"/><feBlend in="a" in2="b" mode="saturation"/></filter><rect width="50" height="50" x="250" y="50" filter="url(#f13)"/><filter id="f14" width="100%" height="100%" x="0%" y="0%"><feFlood flood-color="red" flood-opacity=".5" result="a"/><feFlood flood-color="#0F0" flood-opacity=".5" result="b"/><feBlend in="a" in2="b" mode="color"/></filter><rect width="50" height="50" x="300" y="50" filter="url(#f14)"/><filter id="f15" width="100%" height="100%" x="0%" y="0%"><feFlood flood-color="red" flood-opacity=".5" result="a"/><feFlood flood-color="#0F0" flood-opacity=".5" result="b"/><feBlend in="a" in2="b" mode="luminosity"/></filter><rect width="50" height="50" x="350" y="50" filter="url(#f15)"/><filter id="f16" width="100%" height="100%" x="0%" y="0%"><feFlood flood-color="red" flood-opacity=".5" result="a"/><feFlood flood-color="#0F0" flood-opacity=".5" result="b"/><feBlend in="a" in2="b" mode="undefined"/></filter><rect width="50" height="50" x="0" y="100" filter="url(#f16)"/></svg>