<svg xmlns="http://www.w3.org/2000/svg"><filter id="f1" width="1" height="1" x="0" y="0" filterUnits="objectBoundingBox" primitiveUnits="objectBoundingBox"><feConvolveMatrix width="80%" height="80%" x="10%" y="10%" in="SourceGraphic" kernelMatrix="0 1 0 1 -4 1 0 1 0" order="3" style="color-interpolation-filters:sRGB"/></filter><g filter="url(#f1)"><rect width="100" height="100" x="0" y="0" fill="#0f0" opacity="0"/><rect width="2" height="100" x="49" y="0" fill="#0f0"/></g><filter id="f3" width="1" height="1" x="0" y="0" filterUnits="objectBoundingBox" primitiveUnits="objectBoundingBox"><feConvolveMatrix width="80%" height="80%" x="10%" y="10%" bias="-1" in="SourceGraphic" kernelMatrix="0 1 0 1 -4 1 0 1 0" order="3" preserveAlpha="true" style="color-interpolation-filters:sRGB"/></filter><g filter="url(#f3)"><rect width="100" height="100" x="200" y="0" fill="#0f0" opacity="0"/><rect width="2" height="100" x="249" y="0" fill="#0f0"/></g><filter id="f4" width="1" height="1" x="0" y="0" filterUnits="objectBoundingBox" primitiveUnits="objectBoundingBox"><feConvolveMatrix width="80%" height="80%" x="10%" y="10%" divisor="100000" in="SourceGraphic" kernelMatrix="0 1 0 1 -4 1 0 1 0" order="3" preserveAlpha="true" style="color-interpolation-filters:sRGB"/></filter><g filter="url(#f4)"><rect width="100" height="100" x="300" y="0" fill="#0f0" opacity="0"/><rect width="2" height="100" x="349" y="0" fill="#0f0"/></g><filter id="f5" width="1" height="1" x="0" y="0" filterUnits="objectBoundingBox" primitiveUnits="objectBoundingBox"><feConvolveMatrix style="color-interpolation-filters:sRGB" edgeMode="wrap" in="SourceGraphic" kernelMatrix="0 1 0 1 -4 1 0 1 0" order="3"/></filter><g filter="url(#f5)"><rect width="100" height="100" x="0" y="100" fill="#0f0" opacity="0"/><rect width="1" height="100" x="0" y="100" fill="#0f0"/></g><filter id="f6" width="1" height="1" x="0" y="0" filterUnits="objectBoundingBox" primitiveUnits="objectBoundingBox"><feConvolveMatrix style="color-interpolation-filters:sRGB" edgeMode="duplicate" in="SourceGraphic" kernelMatrix="0 1 0 1 -4 1 0 1 0" order="3"/></filter><g filter="url(#f6)"><rect width="100" height="100" x="100" y="100" fill="#0f0" opacity="0"/><rect width="1" height="100" x="100" y="100" fill="red"/></g><filter id="f7" width="1" height="1" x="0" y="0" filterUnits="objectBoundingBox" primitiveUnits="objectBoundingBox"><feConvolveMatrix style="color-interpolation-filters:sRGB" edgeMode="none" in="SourceGraphic" kernelMatrix="0 1 0 1 -4 1 0 1 0" order="3"/></filter><g filter="url(#f7)"><rect width="100" height="100" x="200" y="100" fill="#0f0" opacity="0"/><rect width="1" height="100" x="200" y="100" fill="#00f"/></g></svg>