<svg xmlns="http://www.w3.org/2000/svg"><filter id="f1" width="1" height="1" x="0" y="0" filterUnits="objectBoundingBox" primitiveUnits="objectBoundingBox"><feFlood flood-color="red" flood-opacity=".5" result="flood"/><feComposite width="80%" height="80%" x="10%" y="10%" in="flood" in2="SourceGraphic" operator="over" style="color-interpolation-filters:sRGB"/></filter><g filter="url(#f1)"><rect width="50" height="100" x="0" y="0" fill="#0f0"/><rect width="50" height="100" x="50" y="0" fill="#0f0" opacity="0"/></g><filter id="f2" width="1" height="1" x="0" y="0" filterUnits="objectBoundingBox" primitiveUnits="objectBoundingBox"><feFlood flood-color="red" result="flood"/><feComposite width="80%" height="80%" x="10%" y="10%" in="flood" in2="SourceGraphic" operator="in" style="color-interpolation-filters:sRGB"/></filter><g filter="url(#f2)"><rect width="50" height="100" x="100" y="0" fill="#0f0"/><rect width="50" height="100" x="150" y="0" fill="#0f0" opacity="0"/></g><filter id="f3" width="1" height="1" x="0" y="0" filterUnits="objectBoundingBox" primitiveUnits="objectBoundingBox"><feFlood flood-color="red" result="flood"/><feComposite width="80%" height="80%" x="10%" y="10%" in="flood" in2="SourceGraphic" operator="out" style="color-interpolation-filters:sRGB"/></filter><g filter="url(#f3)"><rect width="50" height="100" x="200" y="0" fill="#0f0"/><rect width="50" height="100" x="250" y="0" fill="#0f0" opacity="0"/></g><filter id="f4" width="1" height="1" x="0" y="0" filterUnits="objectBoundingBox" primitiveUnits="objectBoundingBox"><feFlood flood-color="red" flood-opacity=".5" result="flood"/><feComposite width="80%" height="80%" x="10%" y="10%" in="flood" in2="SourceGraphic" operator="atop" style="color-interpolation-filters:sRGB"/></filter><g filter="url(#f4)"><rect width="50" height="100" x="300" y="0" fill="#0f0"/><rect width="50" height="100" x="350" y="0" fill="#0f0" opacity="0"/></g><filter id="f5" width="1" height="1" x="0" y="0" filterUnits="objectBoundingBox" primitiveUnits="objectBoundingBox"><feFlood flood-color="red" result="flood"/><feComposite width="80%" height="80%" x="10%" y="10%" in="flood" in2="SourceGraphic" operator="xor" style="color-interpolation-filters:sRGB"/></filter><g filter="url(#f5)"><rect width="50" height="100" x="400" y="0" fill="#0f0"/><rect width="50" height="100" x="450" y="0" fill="#0f0" opacity="0"/></g><filter id="f6" width="1" height="1" x="0" y="0" filterUnits="objectBoundingBox" primitiveUnits="objectBoundingBox"><feFlood flood-color="red" result="flood"/><feComposite width="80%" height="80%" x="10%" y="10%" in="flood" in2="SourceGraphic" k2="1" k3="1" operator="arithmetic" style="color-interpolation-filters:sRGB"/></filter><g filter="url(#f6)"><rect width="50" height="100" x="500" y="0" fill="#0f0"/><rect width="50" height="100" x="550" y="0" fill="#0f0" opacity="0"/></g><filter id="f7" width="100" height="100" x="0" y="100" filterUnits="userSpaceOnUse" primitiveUnits="userSpaceOnUse"><feComposite width="80" height="80" x="10" y="110" in="SourceGraphic" in2="SourceGraphic" k4="1" operator="arithmetic" style="color-interpolation-filters:sRGB"/></filter><rect width="100" height="100" x="0" y="100" fill="#000"/></svg>