<svg xmlns="http://www.w3.org/2000/svg"><filter id="f1" width="1" height="1" x="0" y="0" filterUnits="objectBoundingBox" primitiveUnits="objectBoundingBox"><feMorphology width="80%" height="80%" x="10%" y="10%" operator="erode" radius="0.2 0.2"/></filter><g filter="url(#f1)"><rect width="100" height="100" x="0" y="0" fill="#0f0"/></g><filter id="f2" width="1" height="1" x="0" y="0" filterUnits="objectBoundingBox" primitiveUnits="objectBoundingBox"><feMorphology width="80%" height="80%" x="10%" y="10%" operator="erode" radius="0.3 0.4"/></filter><g filter="url(#f2)"><rect width="100" height="100" x="100" y="0" fill="#0f0" fill-opacity="0"/><rect width="90" height="90" x="105" y="5" fill="#0f0"/></g><filter id="f3" width="1" height="1" x="0" y="0" filterUnits="objectBoundingBox" primitiveUnits="objectBoundingBox"><feMorphology width="80%" height="80%" x="10%" y="10%" operator="dilate" radius="0.2 0.2"/></filter><g filter="url(#f3)"><rect width="100" height="100" x="0" y="100" fill="#0f0"/><rect width="80" height="80" x="10" y="110" fill="#000"/></g><filter id="f4" width="1" height="1" x="0" y="0" filterUnits="objectBoundingBox" primitiveUnits="objectBoundingBox"><feMorphology width="80%" height="80%" x="10%" y="10%" operator="dilate" radius="0.2 0.3"/></filter><g filter="url(#f4)"><rect width="100" height="100" x="100" y="100" fill="#0f0" fill-opacity="0"/><rect width="10" height="10" x="145" y="145" fill="#0f0"/></g></svg>