<svg xmlns="http://www.w3.org/2000/svg" xmlns:xlink="http://www.w3.org/1999/xlink" width="300" height="400"><text x="0" y="50" style="font:inherit">abc</text><text x="50" y="50" style="font:inherit">abc</text><text x="100" y="50" style="font:inherit">abc</text><text x="150" y="50" style="font:caption">abc</text><text x="200" y="50" style="font:caption">abc</text><text x="0" y="100" style="font:inherit">abc</text><text x="50" y="100" style="font:caption">abc</text><text x="100" y="100" style="font:caption">abc</text><text x="150" y="100" style="font:inherit">abc</text><text x="200" y="100" style="font:inherit">abc</text><text x="0" y="150" style="font:inherit">abc</text><text x="50" y="150" style="font:caption">abc</text><text x="100" y="150" style="font:caption">abc</text><text x="150" y="150" style="font:icon">abc</text><text x="200" y="150" style="font:icon">abc</text><text x="0" y="200" style="font:inherit">abc</text><text x="50" y="200" style="font:caption">abc</text><text x="100" y="200" style="font:caption">abc</text><text x="150" y="200" style="font:menu">abc</text><text x="200" y="200" style="font:menu">abc</text><text x="0" y="250" style="font:inherit">abc</text><text x="50" y="250" style="font:caption">abc</text><text x="100" y="250" style="font:caption">abc</text><text x="150" y="250" style="font:message-box">abc</text><text x="200" y="250" style="font:message-box">abc</text><text x="0" y="300" style="font:inherit">abc</text><text x="50" y="300" style="font:caption">abc</text><text x="100" y="300" style="font:caption">abc</text><text x="150" y="300" style="font:small-caption">abc</text><text x="200" y="300" style="font:small-caption">abc</text></svg>