<svg xmlns="http://www.w3.org/2000/svg" width="16" height="16" viewBox="0 0 16 16"><defs><style>g{display:none}#dark-theme:target,#light-theme:target{display:inline}#dark-theme,#light-theme{fill:rgba(128,128,128,.5)}</style></defs><g id="light-theme"><path d="M7.29 13.907l7-5a.5.5 0 0 0 .033-.789l-6.5-5.5a.5.5 0 1 0-.646.764l6.5 5.5.032-.789-7 5a.5.5 0 1 0 .582.814z"/><path d="M2.29 13.907l7-5a.5.5 0 0 0 .033-.789l-6.5-5.5a.5.5 0 1 0-.646.764l6.5 5.5.032-.789-7 5a.5.5 0 1 0 .582.814z"/></g><g id="dark-theme"><path d="M7.29 13.907l7-5a.5.5 0 0 0 .033-.789l-6.5-5.5a.5.5 0 1 0-.646.764l6.5 5.5.032-.789-7 5a.5.5 0 1 0 .582.814z"/><path d="M2.29 13.907l7-5a.5.5 0 0 0 .033-.789l-6.5-5.5a.5.5 0 1 0-.646.764l6.5 5.5.032-.789-7 5a.5.5 0 1 0 .582.814z"/></g></svg>