<svg xmlns="http://www.w3.org/2000/svg" width="16" height="16" fill="#0b0b0b"><style>g:not(:target){display:none}</style><g id="overview-markers"><rect width="5" height="1" x="0" y="4"/><rect width="9" height="1" x="7" y="4"/><rect width="8" height="1" x="0" y="8"/><rect width="6" height="1" x="10" y="8"/><rect width="9" height="1" x="0" y="12"/><rect width="4" height="1" x="12" y="12"/></g><g id="overview-frames"><rect width="2" height="12" x="1" y="4" rx="1" ry="1"/><rect width="2" height="4" x="5" y="12" rx="1" ry="1"/><rect width="2" height="7" x="9" y="9" rx="1" ry="1"/><rect width="2" height="9" x="13" y="7" rx="1" ry="1"/></g><g id="details-waterfall"><rect width="9" height="1" x="0" y="4"/><rect width="8" height="1" x="5" y="8"/><rect width="9" height="1" x="7" y="12"/></g><g id="details-call-tree"><rect width="10" height="1" x="1" y="4"/><rect width="10" height="1" x="5" y="7"/><rect width="10" height="1" x="1" y="10"/><rect width="10" height="1" x="5" y="13"/></g><g id="details-flamegraph"><rect width="16" height="1" x="0" y="4"/><rect width="8" height="1" x="0" y="7"/><rect width="6" height="1" x="10" y="7"/><rect width="6" height="1" x="2" y="10"/><rect width="3" height="1" x="5" y="13"/></g></svg>