<svg xmlns="http://www.w3.org/2000/svg" xmlns:xlink="http://www.w3.org/1999/xlink" width="16" height="16" viewBox="0 0 16 16"><style>.icon-default{fill:gray}</style><defs><rect id="shape-lock-clasp-outer" width="8" height="10" x="2" y="1" rx="4" ry="4"/><rect id="shape-lock-clasp-inner" width="4" height="6" x="4" y="3" rx="2" ry="2"/><rect id="shape-lock-base" width="10" height="7" x="1" y="6" rx="1" ry="1"/><mask id="mask-clasp-cutout"><rect width="16" height="16" fill="#000"/><use fill="#fff" xlink:href="#shape-lock-clasp-outer"/><use fill="#000" xlink:href="#shape-lock-clasp-inner"/></mask></defs><use class="icon-default" mask="url(#mask-clasp-cutout)" xlink:href="#shape-lock-clasp-outer"/><use class="icon-default" xlink:href="#shape-lock-base"/><path fill="#fff" d="M10.5,5C9.8,5,9.1,5.4,8.8,6.2l-3.5,6.8c-0.4,0.7-0.4,1.4,0,2c0.4,0.6,1,1,1.8,1H14c0.8,0,1.4-0.4,1.8-1 c0.3-0.6,0.3-1.4,0-2l-3.5-6.8C11.9,5.4,11.2,5,10.5,5L10.5,5z"/><path fill="#ffbf00" d="M14.8,13.4l-3.5-6.8C11.2,6.2,10.9,6,10.5,6c-0.3,0-0.7,0.2-0.9,0.6l-3.5,6.8c-0.2,0.4-0.2,0.8,0,1.1C6.3,14.8,6.6,15,7,15 H14c0.4,0,0.7-0.2,0.9-0.5C15.1,14.2,15,13.8,14.8,13.4z"/><path fill="#fff" d="M10,8.5C10,8.2,10.2,8,10.5,8S11,8.2,11,8.5L10.8,11h-0.6L10,8.5z"/><circle cx="10.5" cy="12.5" r=".75" fill="#fff"/></svg>