<svg xmlns="http://www.w3.org/2000/svg" xmlns:xlink="http://www.w3.org/1999/xlink" width="400" height="400"><rect width="40" height="40" x="0" y="0" fill="rgba(255,0,0,1)"/><rect width="40" height="40" x="40" y="0" fill="rgba(0,255,0,1)"/><rect width="40" height="40" x="80" y="0" fill="rgba(0,0,255,1)"/><rect width="40" height="40" x="120" y="0" fill="rgba(255,127,0,1)"/><rect width="40" height="40" x="0" y="40" fill="rgba(255,0,0,1)"/><rect width="40" height="40" x="40" y="40" fill="rgba(0,255,0,1)"/><rect width="40" height="40" x="80" y="40" fill="rgba(0,0,255,1)"/><rect width="40" height="40" x="120" y="40" fill="rgba(127,255,0,1)"/><rect width="40" height="40" x="0" y="80" fill="rgba(255,0,0,1)"/><rect width="40" height="40" x="40" y="80" fill="rgba(0,255,0,1)"/><rect width="40" height="40" x="80" y="80" fill="rgba(0,0,255,1)"/><rect width="40" height="40" x="120" y="80" fill="rgba(127,127,0,1)"/><rect width="40" height="40" x="0" y="120" fill="rgba(255,0,0,1)"/><rect width="40" height="40" x="40" y="120" fill="rgba(0,255,0,1)"/><rect width="40" height="40" x="80" y="120" fill="rgba(0,0,255,1)"/><rect width="40" height="40" x="120" y="120" fill="rgba(253,253,0,1)"/></svg>