<svg xmlns="http://www.w3.org/2000/svg" xmlns:xlink="http://www.w3.org/1999/xlink" version="1.1"><title>Testcase for clipPath referencing other clipPaths</title><defs><clipPath id="clip1"><rect id="r1" width="100" height="40" x="20" y="-40"/></clipPath><clipPath id="clip2"><rect width="100" height="100" x="20" y="20" clip-path="url(#clip1)"/></clipPath><clipPath id="clip3"><rect width="100" height="40" x="140" y="-40"/></clipPath><clipPath id="clip4" clip-path="url(#clip3)"><rect width="100" height="100" x="140" y="20"/></clipPath><clipPath id="clip1"><rect width="100" height="40" x="20" y="-40"/></clipPath><clipPath id="clip5"><rect id="r5" width="100" height="100" x="20" y="140"/></clipPath><clipPath id="clip6"><use clip-path="url(#clip5)" xlink:href="#r5"/></clipPath><clipPath id="clip7"><rect id="r7" width="100" height="100" x="140" y="140"/></clipPath><clipPath id="clip8"><use fill="red" clip-path="url(#clip1)" xlink:href="#r7"/></clipPath><clipPath id="clip9"><rect width="100" height="100" x="20" y="260"/></clipPath><clipPath id="clip10"><use fill="red" clip-path="url(#clip9)" xlink:href="#r1"/></clipPath><clipPath id="clip11"><rect id="r11" width="100" height="100" x="140" y="260" clip-path="url(#clip1)"/></clipPath><clipPath id="clip12"><use fill="red" clip-path="url(#clip11)" xlink:href="#r11"/></clipPath><clipPath id="clip12" clipPathUnits="objectBoundingBox"><rect width=".5" height=".5"/></clipPath><clipPath id="clip13" clip-path="url(#clip12)"><circle cx="100" cy="470" r="150"/></clipPath><clipPath id="clip14"><use xlink:href="#clip1"/></clipPath><clipPath id="clip15" clip-path="url(#clip14)"><text x="140" y="500" font-size="100">CLIP</text></clipPath></defs><rect width="100%" height="100%" fill="#0f0"/><rect width="100" height="100" x="20" y="20" fill="red" clip-path="url(#clip2)"/><rect width="100" height="100" x="140" y="20" fill="red" clip-path="url(#clip4)"/><rect width="100" height="100" x="20" y="140" fill="red"/><rect width="100" height="100" x="20" y="140" fill="#0f0" clip-path="url(#clip6)"/><rect width="100" height="100" x="140" y="140" fill="red" clip-path="url(#clip8)"/><rect width="100" height="100" x="20" y="260" fill="red" clip-path="url(#clip10)"/><rect width="100" height="100" x="140" y="260" fill="red" clip-path="url(#clip12)"/><rect width="300" height="300" x="20" y="400" fill="red" clip-path="url(#clip13)"/><rect width="100" height="100" x="20" y="400" fill="#0f0"/><rect width="300" height="300" x="140" y="400" fill="red" clip-path="url(#clip15)"/></svg>