<svg xmlns="http://www.w3.org/2000/svg" xmlns:xlink="http://www.w3.org/1999/xlink"><title>Reference for test that marker orientation is correct at the end of arcs when orient=&quot;auto-start-reverse&quot; is used</title><defs><g id="m1" fill="#00f" transform="translate(-20,-20)"><rect width="22" height="10" x="5" y="15"/><path d="M 25,10 35,20 25,30 z"/></g><g id="m2" fill="red" transform="translate(-20,-20)"><rect width="22" height="10" x="5" y="15"/><path d="M 25,10 35,20 25,30 z"/></g></defs><g fill="none"><g><use transform="translate(100,100)rotate(270)" xlink:href="#m1"/><use transform="rotate(-90,150,100)translate(100,100)rotate(90)" xlink:href="#m2"/><use transform="rotate(-180,150,100)translate(100,100)rotate(90)" xlink:href="#m2"/><use transform="rotate(-270,150,100)translate(100,100)rotate(90)" xlink:href="#m2"/></g><g transform="translate(250,0)"><use transform="translate(100,100)rotate(90)" xlink:href="#m1"/><use transform="rotate(90,150,100)translate(100,100)rotate(-90)" xlink:href="#m2"/><use transform="rotate(180,150,100)translate(100,100)rotate(-90)" xlink:href="#m2"/><use transform="rotate(270,150,100)translate(100,100)rotate(-90)" xlink:href="#m2"/></g><g transform="translate(0,250)"><use transform="translate(200,100)rotate(270)" xlink:href="#m1"/><use transform="rotate(90,150,100)translate(200,100)rotate(90)" xlink:href="#m2"/><use transform="rotate(180,150,100)translate(200,100)rotate(90)" xlink:href="#m2"/><use transform="rotate(270,150,100)translate(200,100)rotate(90)" xlink:href="#m2"/></g><g transform="translate(250,250)"><use transform="translate(200,100)rotate(90)" xlink:href="#m1"/><use transform="rotate(-90,150,100)translate(200,100)rotate(-90)" xlink:href="#m2"/><use transform="rotate(-180,150,100)translate(200,100)rotate(-90)" xlink:href="#m2"/><use transform="rotate(-270,150,100)translate(200,100)rotate(-90)" xlink:href="#m2"/></g></g></svg>