<svg xmlns="http://www.w3.org/2000/svg"><title>Test that marker orientation is correct at the end of arcs</title><marker id="m1" fill="#00f" markerHeight="40" markerUnits="userSpaceOnUse" markerWidth="40" orient="auto" refX="20" refY="20"><rect width="22" height="10" x="5" y="15"/><path d="M 25,10 35,20 25,30 z"/></marker><marker id="m2" fill="red" markerHeight="40" markerUnits="userSpaceOnUse" markerWidth="40" orient="auto" refX="20" refY="20"><rect width="22" height="10" x="5" y="15"/><path d="M 25,10 35,20 25,30 z"/></marker><g fill="none"><g marker-end="url(#m2)"><path marker-start="url(#m1)" d="M100,100 A 50,50 0 1 0 150,50"/><path d="M100,100 A 50,50 0 0 0 200,100"/><path d="M100,100 A 50,50 0 0 0 150,150"/></g><g marker-end="url(#m2)" transform="translate(250,0)"><path marker-start="url(#m1)" d="M100,100 A 50,50 0 0 1 150,50"/><path d="M100,100 A 50,50 0 1 1 200,100"/><path d="M100,100 A 50,50 0 1 1 150,150"/></g><g marker-end="url(#m2)" transform="translate(0,250)"><path marker-start="url(#m1)" d="M200,100 A 50,50 0 0 1 150,150"/><path d="M200,100 A 50,50 0 0 1 100,100"/><path d="M200,100 A 50,50 0 1 1 150,50"/></g><g marker-end="url(#m2)" transform="translate(250,250)"><path marker-start="url(#m1)" d="M200,100 A 50,50 0 0 0 150,50"/><path d="M200,100 A 50,50 0 1 0 100,100"/><path d="M200,100 A 50,50 0 1 0 150,150"/></g></g></svg>