<svg xmlns="http://www.w3.org/2000/svg" version="1.1"><title>Testing invalid values for |points| attribute</title><style>polyline{fill:red;stroke:#0f0;stroke-width:4}</style><rect width="100%" height="100%" fill="#0f0"/><g transform="translate(0, 0)"><polyline points="0 0 10 20 20 0"/><polyline points="0 0 10 20 20 0" transform="translate( 40, 0)"/><polyline points="0 0 10 20 20 0" transform="translate( 80, 0)"/><polyline points="0 0 10 20 20 0" transform="translate(120, 0)"/><polyline points="0 0 10 20 20 0" transform="translate(160, 0)"/></g><g transform="translate(0, 40)"><polyline points="0 0 10 20 20 0"/><polyline points="0 0 10 20 20 0" style="fill:#0f0"/><polyline points="0 0 10 20 20 0" transform="translate( 40, 0)"/><polyline points="0 0 10 20 20 0" transform="translate( 40, 0)" style="fill:#0f0"/><polyline points="0 0 10 20 20 0" transform="translate( 80, 0)"/><polyline points="0 0 10 20 20 0" transform="translate( 80, 0)" style="fill:#0f0"/><polyline points="0 0 10 20 20 0" transform="translate(120, 0)"/><polyline points="0 0 10 20 20 0" transform="translate(120, 0)" style="fill:#0f0"/><polyline points="0 0 10 20 20 0" transform="translate(160, 0)"/><polyline points="0 0 10 20 20 0" transform="translate(160, 0)" style="fill:#0f0"/></g><g transform="translate(0, 80)"><polyline points="0 0 10 20 20 0"/><polyline points="0 0 10 20 20 0" transform="translate( 40, 0)"/><polyline points="0 0 10 20 20 0" transform="translate( 80, 0)"/><polyline points="0 0 10 20 20 0" transform="translate(120, 0)"/><polyline points="0 0 10 20 20 0" transform="translate(160, 0)"/></g><g transform="translate(0, 120)"><polyline/><polyline points="0 0" transform="translate( 40, 0)"/><polyline points="0 0 10" transform="translate( 80, 0)"/><polyline points="0 0 10 20 20" transform="translate(120, 0)"/><polyline points="0 0 10 20 20 0" transform="translate(160, 0)"/><polyline points="0 0 10 20 20 0 0" transform="translate(160, 0)" style="fill:#0f0"/></g></svg>