<svg xmlns="http://www.w3.org/2000/svg"><title>Test the start point and direction of dashing on circle and ellipse</title><rect width="100%" height="100%" fill="#0f0"/><circle cx="100" cy="62" r="8" fill="red"/><circle cx="66" cy="98" r="8" fill="red"/><circle cx="50" cy="50" r="50" fill="none" stroke="#0f0" stroke-dasharray="25 25 25 100000" stroke-width="30"/><circle cx="200" cy="50" r="50" fill="none" stroke="red" stroke-dasharray="10 40 10 100000" stroke-width="10"/><circle cx="250" cy="56" r="11" fill="#0f0"/><circle cx="223" cy="96" r="11" fill="#0f0"/><circle cx="95" cy="211" r="8" fill="red"/><circle cx="47" cy="225" r="8" fill="red"/><ellipse cx="50" cy="200" fill="none" stroke="#0f0" stroke-dasharray="25 25 25 100000" stroke-width="25" rx="50" ry="25"/><ellipse cx="200" cy="200" fill="none" stroke="red" stroke-dasharray="10 40 10 100000" stroke-width="10" rx="50" ry="25"/><circle cx="250" cy="205" r="11" fill="#0f0"/><circle cx="206" cy="225" r="11" fill="#0f0"/><circle cx="125" cy="325" r="8" fill="red"/><circle cx="50" cy="380" r="8" fill="red"/><circle cx="0" cy="0" r=".001" fill="none" stroke="#0f0" stroke-dasharray=".001 .001 .001 100" stroke-width="0" transform="translate(50, 300) scale(1e5, 1e5)"/><circle cx="0" cy="0" r=".001" fill="none" stroke="red" stroke-dasharray="0 .001 0 100" stroke-width="0" transform="translate(180, 300) scale(1e5, 1e5)"/><circle cx="260" cy="305" r="14" fill="#0f0"/><circle cx="235" cy="358" r="14" fill="#0f0"/></svg>