<svg xmlns="http://www.w3.org/2000/svg"><title>Test &apos;stroke-linecap: round&apos; with zero length path segments</title><style>path, line { stroke-width: 20px; stroke-linecap: round; } circle { fill: red; } /* expect lime circles to cover red circles */ path.circles-expected, line.circles-expected { stroke: lime; } path.circles-not-expected { stroke: red; } /* thicker stroke to cover circles-not-expected paths */ path.coverer { stroke: lime; stroke-width: 24px; } /* to show edges of shapes to help in debugging: g &gt; circle { stroke: red; stroke-width: 5px; } path.coverer { stroke: lime; stroke-width: 18px; } */</style><rect width="100%" height="100%" style="fill:#0f0"/><g transform="translate(25,25)"><circle cx="0" cy="0" r="8"/><circle cx="50" cy="50" r="8"/><circle cx="100" cy="100" r="8"/><path d="M0,0 L0,0 M20,20 L30,30 M50,50 L50,50 M70,70 L80,80 M100,100 L100,100" class="circles-expected"/></g><g transform="translate(25,75)"><circle cx="0" cy="0" r="8"/><circle cx="50" cy="50" r="8"/><circle cx="100" cy="100" r="8"/><path d="M0,0 C0,0 0,0 0,0 M20,20 L30,30 M50,50 C50,50 50,50 50,50 M70,70 L80,80 M100,100 C100,100 100,100 100,100" class="circles-expected"/></g><g transform="translate(25,125)"><circle cx="0" cy="0" r="8"/><circle cx="50" cy="50" r="8"/><circle cx="100" cy="100" r="8"/><path d="M0,0 A0,10 0 0 0 0,0 M20,20 L30,30 M50,50 A0,10 0 0 0 50,50 M70,70 L80,80 M100,100 A0,10 0 0 0 100,100" class="circles-expected"/></g><g transform="translate(25,175)"><circle cx="0" cy="0" r="8"/><circle cx="50" cy="50" r="8"/><circle cx="100" cy="100" r="8"/><path d="M0,0 Z M20,20 L30,30 M50,50 Z M70,70 L80,80 M100,100 Z" class="circles-expected"/></g><g transform="translate(175,25)"><circle cx="0" cy="0" r="8"/><circle cx="50" cy="50" r="8"/><circle cx="100" cy="100" r="8"/><path d="M0,0 L0,0 M0,0 L0,0 M20,20 L30,30 M50,50 L50,50 L50,50 M70,70 L80,80 M100,100 L100,100 L100,100" class="circles-expected"/></g><g transform="translate(177,75)"><circle cx="0" cy="0" r="8"/><circle cx="50" cy="50" r="8"/><circle cx="100" cy="100" r="8"/><path d="M0,0 C0,0 0,0 0,0 C0,0 0,0 0,0 M20,20 L30,30 M50,50 C50,50 50,50 50,50 C50,50 50,50 50,50 M70,70 L80,80 M100,100 C100,100 100,100 100,100 C100,100 100,100 100,100" class="circles-expected"/></g><g transform="translate(175,125)"><circle cx="0" cy="0" r="8"/><circle cx="50" cy="50" r="8"/><circle cx="100" cy="100" r="8"/><path d="M0,0 A0,10 0 0 0 0,0 A0,10 0 0 0 0,0 M20,20 L30,30 M50,50 A0,10 0 0 0 50,50 A0,10 0 0 0 50,50 M70,70 L80,80 M100,100 A0,10 0 0 0 100,100 A0,10 0 0 0 100,100" class="circles-expected"/></g><g transform="translate(175,175)"><circle cx="0" cy="0" r="8"/><circle cx="50" cy="50" r="8"/><circle cx="100" cy="100" r="8"/><path d="M0,0 Z Z M20,20 L30,30 M50,50 Z Z M70,70 L80,80 M100,100 Z Z" class="circles-expected"/></g><g><path d="M20,20 L20,20 L30,30 L30,30 L40,40 L40,40" class="circles-not-expected" transform="translate(325,25)"/><path d="M20,20 L40,40" class="coverer" transform="translate(325,25)"/></g><g><path d="M20,20 C20,20 20,20 20,20 C20,20 30,30 30,30 C30,30 30,30 30,30 C30,30 40,40 40,40 C40,40 40,40 40,40" class="circles-not-expected" transform="translate(325,75)"/><path d="M20,20 L40,40" class="coverer" transform="translate(325,75)"/></g><g><path d="M20,20 A0,10 0 0 0 20,20 A0,10 0 0 0 30,30 A0,10 0 0 0 30,30 A0,10 0 0 0 40,40 A0,10 0 0 0 40,40" class="circles-not-expected" transform="translate(325,125)"/><path d="M20,20 L40,40" class="coverer" transform="translate(325,125)"/></g><g transform="translate(325,175)"><circle cx="20" cy="20" r="8"/><path d="M20,20 Z L30,30 Z L40,40 Z" class="circles-expected"/></g><g><path d="M0,0 M0,0 M20,20 L30,30 M50,50 M50,50 M70,70 L80,80 M100,100 M100,100" class="circles-not-expected" transform="translate(425,25)"/><path d="M20,20 L30,30 M70,70 L80,80" class="coverer" transform="translate(425,25)"/></g><g transform="translate(525,25)"><circle cy="0" r="8"/><circle cy="40" r="8"/><circle cy="80" r="8"/><path stroke-dasharray="0 40" d="M0,0v81" class="circles-expected"/></g><g transform="translate(575,25)"><circle cy="0" r="8"/><circle cy="40" r="8"/><circle cy="80" r="8"/><path stroke-dasharray="0" d="M0,0v81" class="circles-expected"/></g><g transform="translate(625, 25)"><circle cy="0" r="8"/><line x1="0" x2="0" y1="0" y2="0" class="circles-expected"/></g></svg>