<svg xmlns="http://www.w3.org/2000/svg" version="1.1"><title>Testcase for switch</title><rect width="100%" height="100%" fill="#0f0"/><rect width="50" height="50" x="50" y="100" fill="red"/><switch><rect width="50" height="50" x="50" y="100" fill="#0f0"/><rect width="50" height="50" x="50" y="100" fill="red"/><rect width="50" height="50" x="50" y="100" fill="red"/><rect width="50" height="50" x="50" y="100" fill="red"/><rect width="50" height="50" x="50" y="100" fill="red"/><rect width="50" height="50" x="50" y="100" fill="red"/><rect width="50" height="50" x="50" y="100" fill="red"/><rect width="50" height="50" x="50" y="100" fill="red"/><rect width="50" height="50" x="50" y="100" fill="red"/><rect width="50" height="50" x="50" y="100" fill="red"/><rect width="50" height="50" x="50" y="100" fill="red"/><rect width="50" height="50" x="50" y="100" fill="red"/></switch><rect width="50" height="50" x="200" y="100" fill="red"/><switch><rect width="50" height="50" x="200" y="100" fill="red" systemLanguage="foo"/><rect width="50" height="50" x="200" y="100" fill="#0f0"/><rect width="50" height="50" x="200" y="100" fill="red"/><rect width="50" height="50" x="200" y="100" fill="red"/></switch><rect width="50" height="50" x="50" y="200" fill="red"/><switch><rect width="50" height="50" x="50" y="200" fill="#0f0" requiredFeatures="http://www.w3.org/TR/SVG11/feature#CoreAttribute http://www.w3.org/TR/SVG11/feature#Gradient"/><rect width="50" height="50" x="50" y="200" fill="red"/><rect width="50" height="50" x="50" y="200" fill="red"/></switch><rect width="50" height="50" x="200" y="200" fill="#0f0"/><rect width="50" height="50" x="50" y="300" fill="red"/><switch><rect width="50" height="50" x="50" y="300" fill="red" requiredExtensions="foo"/><rect width="50" height="50" x="50" y="300" fill="#0f0"/><rect width="50" height="50" x="50" y="300" fill="red"/><rect width="50" height="50" x="50" y="300" fill="red"/></switch><switch><rect style="display:none" width="50" height="50" x="200" y="300" fill="red"/><rect width="50" height="50" x="200" y="300" fill="red"/></switch></svg>