<svg xmlns="http://www.w3.org/2000/svg" xmlns:xlink="http://www.w3.org/1999/xlink" version="1.1"><title>Testing invalid values for |viewBox| attribute</title><defs><rect id="redRect" width="10" height="10" fill="red"/><rect id="limeRect" width="10" height="10" fill="#0f0"/></defs><rect width="100%" height="100%" fill="#0f0"/><g><g transform="translate(0, 0) translate(0, 0)"><svg width="20" height="20" viewBox="0 0 1 1"><use xlink:href="#redRect"/></svg><use xlink:href="#limeRect"/></g><g transform="translate(0, 0) translate(40, 0)"><svg width="20" height="20" viewBox="0 0 1 1"><use xlink:href="#redRect"/></svg><use xlink:href="#limeRect"/></g><g transform="translate(0, 0) translate(80, 0)"><svg width="20" height="20" viewBox="0 0 1 1"><use xlink:href="#redRect"/></svg><use xlink:href="#limeRect"/></g><g transform="translate(0, 0) translate(120, 0)"><svg width="20" height="20" viewBox="0 0 1 1"><use xlink:href="#redRect"/></svg><use xlink:href="#limeRect"/></g><g transform="translate(0, 0) translate(160, 0)"><svg width="20" height="20" viewBox="0 0 1 1"><use xlink:href="#redRect"/></svg><use xlink:href="#limeRect"/></g></g><g><g transform="translate(0, 40) translate(0, 0)"><svg width="20" height="20" viewBox="0 0 1 1"><use xlink:href="#redRect"/></svg><use xlink:href="#limeRect"/></g><g transform="translate(0, 40) translate(40, 0)"><svg width="20" height="20" viewBox="0 0 1 1"><use xlink:href="#redRect"/></svg><use xlink:href="#limeRect"/></g><g transform="translate(0, 40) translate(80, 0)"><svg width="20" height="20" viewBox="0 0 1 1"><use xlink:href="#redRect"/></svg><use xlink:href="#limeRect"/></g><g transform="translate(0, 40) translate(120, 0)"><svg width="20" height="20" viewBox="0 0 1 1"><use xlink:href="#redRect"/></svg><use xlink:href="#limeRect"/></g><g transform="translate(0, 40) translate(160, 0)"><svg width="20" height="20" viewBox="0 0 1 1"><use xlink:href="#redRect"/></svg><use xlink:href="#limeRect"/></g></g><g><g transform="translate(0, 80) translate(0, 0)"><svg width="20" height="20" viewBox="0 0 1 1"><use xlink:href="#redRect"/></svg><use xlink:href="#limeRect"/></g><g transform="translate(0, 80) translate(40, 0)"><svg width="20" height="20" viewBox="0 0 1 1"><use xlink:href="#redRect"/></svg><use xlink:href="#limeRect"/></g><g transform="translate(0, 80) translate(80, 0)"><svg width="20" height="20" viewBox="0 0 1 1"><use xlink:href="#redRect"/></svg><use xlink:href="#limeRect"/></g><g transform="translate(0, 80) translate(120, 0)"><svg width="20" height="20" viewBox="0 0 1 1"><use xlink:href="#redRect"/></svg><use xlink:href="#limeRect"/></g><g transform="translate(0, 80) translate(160, 0)"><svg width="20" height="20" viewBox="0 0 1 1"><use xlink:href="#redRect"/></svg><use xlink:href="#limeRect"/></g></g><g><g transform="translate(0, 120) translate(0, 0)"><svg width="20" height="20" viewBox="0"><use xlink:href="#redRect"/></svg><use xlink:href="#limeRect"/></g><g transform="translate(0, 120) translate(40, 0)"><svg width="20" height="20" viewBox="0"><use xlink:href="#redRect"/></svg><use xlink:href="#limeRect"/></g><g transform="translate(0, 120) translate(80, 0)"><svg width="20" height="20" viewBox="0 0"><use xlink:href="#redRect"/></svg><use xlink:href="#limeRect"/></g><g transform="translate(0, 120) translate(120, 0)"><svg width="20" height="20" viewBox="0 0 1"><use xlink:href="#redRect"/></svg><use xlink:href="#limeRect"/></g><g transform="translate(0, 120) translate(160, 0)"><svg width="20" height="20" viewBox="0 0 1 1 1"><use xlink:href="#redRect"/></svg><use xlink:href="#limeRect"/></g></g></svg>